<?xml version="1.0" encoding="UTF-8"?>
<svg version="1.1" xmlns="http://www.w3.org/2000/svg" width="1184" height="864">
<path d="M0 0 C390.72 0 781.44 0 1184 0 C1184 285.12 1184 570.24 1184 864 C793.28 864 402.56 864 0 864 C0 578.88 0 293.76 0 0 Z " fill="#FEFEFE" transform="translate(0,0)"/>
<path d="M0 0 C7.46382122 2.77035526 10.40466299 9.18932743 13.5625 15.98046875 C18.15327992 26.54544091 20.94695991 38.30310255 21.33203125 49.828125 C21.57464595 59.36601114 21.57464595 59.36601114 25.82421875 67.73046875 C30.78435689 75.38696105 31.5314737 84.74039264 31.60546875 93.6171875 C31.61553955 94.39296143 31.62561035 95.16873535 31.63598633 95.96801758 C31.56067444 100.9861392 30.62168215 105.12507228 28.82714844 109.81103516 C27.93368776 112.51325735 27.95125128 114.98736034 28.16796875 117.8046875 C27.17796875 118.1346875 26.18796875 118.4646875 25.16796875 118.8046875 C23.69943749 120.65750316 23.69943749 120.65750316 22.35546875 122.9296875 C15.51496078 133.49986118 7.20078592 139.80859121 -3.83203125 145.8046875 C-3.14625 146.33320313 -2.46046875 146.86171875 -1.75390625 147.40625 C6.74030483 154.37877086 14.5944845 162.19730639 20.60546875 171.4296875 C20.98864258 172.00895996 21.37181641 172.58823242 21.76660156 173.18505859 C24.28014692 177.26266775 24.28014692 177.26266775 23.75 179.82421875 C23.46189453 180.80455078 23.46189453 180.80455078 23.16796875 181.8046875 C24.03857244 184.74954379 24.03857244 184.74954379 25.41796875 187.8671875 C31.44022666 202.78024398 31.44022666 202.78024398 31.16796875 210.8046875 C37.37768432 206.4723278 41.12102564 201.24979352 42.57617188 193.68164062 C43.07376749 190.4377523 43.50636739 187.18709445 43.93212891 183.93310547 C45.15237103 175.41503907 48.39654701 168.96182011 53.16796875 161.8046875 C53.82796875 161.8046875 54.48796875 161.8046875 55.16796875 161.8046875 C55.16796875 161.1446875 55.16796875 160.4846875 55.16796875 159.8046875 C57.43359375 158.11328125 57.43359375 158.11328125 60.41796875 156.2421875 C61.3925 155.62214844 62.36703125 155.00210938 63.37109375 154.36328125 C68.18614651 151.68003257 71.91065919 151.69119389 77.41796875 151.7421875 C79.31289063 151.75572266 79.31289063 151.75572266 81.24609375 151.76953125 C82.2103125 151.78113281 83.17453125 151.79273438 84.16796875 151.8046875 C84.16796875 152.4646875 84.16796875 153.1246875 84.16796875 153.8046875 C84.91046875 153.8665625 85.65296875 153.9284375 86.41796875 153.9921875 C90.13551403 155.09055315 91.16663041 156.51677451 93.16796875 159.8046875 C94.32580517 164.43603318 94.64398207 167.64048329 92.16796875 171.8046875 C88.30126934 175.54484038 85.47227129 176.36990914 80.16796875 176.8671875 C75.3762275 177.32674027 72.01512585 177.80577511 68.16796875 180.8046875 C64.91846611 184.91873672 64.32793379 189.2864125 63.41796875 194.3046875 C60.85728877 206.92271616 55.22958172 219.43027886 44.16796875 226.8046875 C44.99296875 227.2996875 45.81796875 227.7946875 46.66796875 228.3046875 C49.3201761 230.95689485 49.56340912 231.30193976 49.66796875 234.8046875 C49.62996742 237.23677237 49.17688795 238.78437752 48.1953125 241.01953125 C44.9502179 243.87696523 41.41286927 243.36388125 37.23046875 243.3671875 C30.1215625 243.280312 30.1215625 243.280312 24.16796875 246.8046875 C21.80859375 247.09765625 21.80859375 247.09765625 19.41796875 246.9921875 C18.29213379 246.94251831 18.29213379 246.94251831 17.14355469 246.8918457 C16.49161133 246.8630835 15.83966797 246.83432129 15.16796875 246.8046875 C14.52795744 251.81461213 14.0940162 256.74305891 13.95703125 261.79296875 C13.92867187 262.82873047 13.9003125 263.86449219 13.87109375 264.93164062 C13.81853601 267.07468259 13.77441291 269.21794629 13.73828125 271.36132812 C13.70734375 272.39064453 13.67640625 273.41996094 13.64453125 274.48046875 C13.62471191 275.40770752 13.60489258 276.33494629 13.58447266 277.2902832 C13.08995342 280.27566047 12.28875171 281.66192119 10.16796875 283.8046875 C7.37406111 284.37616861 4.98569851 284.68575735 2.16796875 284.8046875 C1.04358398 284.85375244 1.04358398 284.85375244 -0.10351562 284.90380859 C-2.43102116 284.97327902 -4.75355164 284.9902471 -7.08203125 284.9921875 C-7.8709375 285.00443359 -8.65984375 285.01667969 -9.47265625 285.02929688 C-16.53475381 285.0471907 -16.53475381 285.0471907 -19.83203125 282.8046875 C-20.16277674 279.16648706 -20.32008667 277.4273789 -18.01953125 274.4921875 C-15.83203125 272.8046875 -15.83203125 272.8046875 -12.83203125 271.8046875 C-14.81521807 266.46610883 -17.61363494 261.63702207 -20.37109375 256.66796875 C-21.83203125 253.8046875 -21.83203125 253.8046875 -21.83203125 251.8046875 C-22.49203125 252.1346875 -23.15203125 252.4646875 -23.83203125 252.8046875 C-26.3836078 252.876361 -28.90676096 252.89777192 -31.45703125 252.8671875 C-32.1634375 252.86267578 -32.86984375 252.85816406 -33.59765625 252.85351562 C-35.342484 252.84172625 -37.08726825 252.82379074 -38.83203125 252.8046875 C-38.86941406 253.72507812 -38.90679688 254.64546875 -38.9453125 255.59375 C-40.16822889 279.14088514 -40.16822889 279.14088514 -44.83203125 283.8046875 C-47.70532227 284.04760742 -47.70532227 284.04760742 -51.3359375 284.03515625 C-52.63337891 284.03322266 -53.93082031 284.03128906 -55.26757812 284.02929688 C-55.94425537 284.02309326 -56.62093262 284.01688965 -57.31811523 284.01049805 C-59.38993596 283.99222802 -61.46131022 283.98998845 -63.53320312 283.99023438 C-73.69194868 283.94477007 -73.69194868 283.94477007 -74.83203125 282.8046875 C-75.22980971 279.22468138 -75.30091366 277.44723006 -73.14453125 274.4921875 C-70.61680492 272.64763045 -68.87267724 272.3139831 -65.83203125 271.8046875 C-66.02313477 271.27738037 -66.21423828 270.75007324 -66.41113281 270.20678711 C-76.83203125 241.31732288 -76.83203125 241.31732288 -76.83203125 232.8046875 C-78.81203125 231.8146875 -78.81203125 231.8146875 -80.83203125 230.8046875 C-81.33416642 212.08663345 -80.69946345 193.1911482 -76.83203125 174.8046875 C-77.55390625 174.67191406 -78.27578125 174.53914062 -79.01953125 174.40234375 C-91.73273951 171.70078699 -104.23963107 164.54331384 -113.83203125 155.8046875 C-114.85069354 154.14936127 -115.85013938 152.48208612 -116.83203125 150.8046875 C-119.40062481 148.3598106 -122.13225403 146.10301086 -124.83203125 143.8046875 C-136.08359079 134.18231305 -143.21529792 120.6548875 -147.83203125 106.8046875 C-148.98445439 90.90124817 -146.32436834 78.33226135 -135.83203125 65.8046875 C-129.73321351 58.96576745 -123.33928332 52.56628963 -114.83203125 48.8046875 C-113.84203125 48.8046875 -112.85203125 48.8046875 -111.83203125 48.8046875 C-111.89003906 47.82371094 -111.94804688 46.84273438 -112.0078125 45.83203125 C-112.44911493 34.95426593 -111.65315482 23.66736314 -104.4453125 14.90234375 C-101.65568094 12.66313277 -100.69366087 12.20203814 -97.20703125 12.4296875 C-96.45164062 12.46320313 -95.69625 12.49671875 -94.91796875 12.53125 C-92.83203125 12.8046875 -92.83203125 12.8046875 -89.83203125 13.8046875 C-89.83203125 14.4646875 -89.83203125 15.1246875 -89.83203125 15.8046875 C-89.25839844 15.91683594 -88.68476562 16.02898437 -88.09375 16.14453125 C-81.80946755 17.97880367 -76.83139981 22.75804011 -72.33203125 27.3046875 C-69.36232477 30.12606041 -69.36232477 30.12606041 -65.51171875 30.90234375 C-63.22485314 30.42083681 -63.22485314 30.42083681 -61.16796875 29.62109375 C-54.47788267 27.28291985 -47.38210974 27.68308632 -40.39453125 27.7421875 C-39.37681641 27.74669922 -38.35910156 27.75121094 -37.31054688 27.75585938 C-34.81764616 27.76756313 -32.32487051 27.78395902 -29.83203125 27.8046875 C-29.59355469 27.10859375 -29.35507812 26.4125 -29.109375 25.6953125 C-24.41381891 15.06928343 -12.47583892 -0.4343619 0 0 Z " fill="#F58522" transform="translate(700.83203125,299.1953125)"/>
<path d="M0 0 C1.65511093 -0.01489471 1.65511093 -0.01489471 3.34365845 -0.03009033 C6.98149138 -0.05921663 10.61914986 -0.07291817 14.25708008 -0.08398438 C16.7966563 -0.09549735 19.33623251 -0.10701269 21.87580872 -0.11853027 C26.51860627 -0.13683944 31.16135199 -0.14945315 35.80417651 -0.15552378 C42.60748765 -0.16447187 49.40999247 -0.19952248 56.21305865 -0.25752497 C62.13277657 -0.30621881 68.05229695 -0.32142442 73.97222328 -0.32487488 C76.47711894 -0.33090373 78.98201221 -0.34687869 81.48677635 -0.37324524 C108.26881581 -0.63503512 108.26881581 -0.63503512 118.0587616 8.36218262 C121.79469635 12.20907593 124.1626664 16.20469691 125.83911133 21.32226562 C126.15879883 22.08410156 126.47848633 22.8459375 126.80786133 23.63085938 C127.76050165 26.45790773 128.1791808 28.34665776 127.83911133 31.32226562 C125.6822241 34.15431293 123.25374402 36.32808712 120.58911133 38.68554688 C116.17435325 42.91844702 113.52697536 47.87934097 110.83911133 53.32226562 C110.29770508 54.37607422 110.29770508 54.37607422 109.74536133 55.45117188 C106.08072304 64.12075598 106.12689742 77.10186125 109.52661133 85.82226562 C110.2704749 87.33582137 111.04112157 88.8365347 111.83911133 90.32226562 C112.18973633 91.11375 112.54036133 91.90523438 112.90161133 92.72070312 C116.24715875 100.08555405 121.08769499 107.57084929 126.83911133 113.32226562 C126.97787393 116.36891827 127.05239791 119.39112593 127.07739258 122.43945312 C127.08546432 123.3663797 127.09353607 124.29330627 127.10185242 125.24832153 C127.1157209 127.22054157 127.12643061 129.19278588 127.13427734 131.16503906 C127.1513424 134.15022274 127.19518424 137.13425572 127.23950195 140.11914062 C127.33222249 151.44122322 127.27556685 161.61093229 120.33911133 171.13476562 C108.78384745 182.46150457 95.18883131 181.16205814 80.06176758 181.01367188 C77.64383669 181.01008888 75.22590156 181.00873859 72.80796814 181.00950623 C67.75533666 181.00483064 62.70334855 180.98011274 57.65087891 180.93969727 C51.2043201 180.88875763 44.75846692 180.87725485 38.31173038 180.87953281 C33.32284424 180.87871333 28.33410947 180.86219933 23.34527397 180.84052849 C20.96965108 180.83104411 18.59401121 180.82508415 16.21837044 180.82284737 C-17.72727281 180.75588149 -17.72727281 180.75588149 -28.34838867 170.13476562 C-33.17839002 162.63993595 -36.27246604 155.923282 -36.30133057 146.92218018 C-36.30704071 145.85130157 -36.31275085 144.78042297 -36.31863403 143.67709351 C-36.31975189 142.51231476 -36.32086975 141.34753601 -36.32202148 140.14746094 C-36.32698639 138.91273041 -36.33195129 137.67799988 -36.33706665 136.40585327 C-36.34915283 133.02547177 -36.35662761 129.64515194 -36.36107731 126.2647562 C-36.36401489 124.1495112 -36.36812099 122.03427154 -36.37258148 119.91902924 C-36.38624601 113.29128078 -36.39591759 106.66354462 -36.39978337 100.03578305 C-36.40426072 92.4029568 -36.42179786 84.77030993 -36.45078397 77.13753819 C-36.47245011 71.22566467 -36.48249029 65.31384144 -36.48382449 59.40192866 C-36.48486906 55.87657813 -36.49070211 52.35139644 -36.5086441 48.82608795 C-36.52829364 44.8888835 -36.52381619 40.9519006 -36.51733398 37.01464844 C-36.52654877 35.85796661 -36.53576355 34.70128479 -36.54525757 33.509552 C-36.49495021 23.73418568 -34.93953252 16.32069555 -28.11791992 9.11132812 C-19.64772117 1.3681125 -11.12191548 0.02411043 0 0 Z " fill="#F9FAFA" transform="translate(446.160888671875,325.677734375)"/>
<path d="M0 0 C1.02083333 0.875 2.04166667 1.75 3.0625 2.625 C3.71089844 3.17414063 4.35929688 3.72328125 5.02734375 4.2890625 C6.23463786 5.33618095 7.42075426 6.40921237 8.56640625 7.5234375 C16.10763205 14.66775668 25.34091521 17.95407691 35.4375 19.4375 C43.54618481 20.63685835 43.54618481 20.63685835 46.5625 24.5 C46.96726562 25.10972656 47.37203125 25.71945312 47.7890625 26.34765625 C49.92174243 29.25773241 52.64575775 29.99961196 56 31 C62.7459327 31.87447276 68.25066948 29.55485354 73.765625 25.796875 C76.19500156 23.85828158 78.02491152 21.96263272 79.75 19.375 C82.69267099 16.26884729 85.39482288 15.66277403 89.484375 14.65234375 C92.23763054 14.01594218 92.23763054 14.01594218 95.5625 12.375 C99.57229746 11.93756755 100.12118204 12.36719075 103.25 14.6875 C104.86009322 16.09496244 106.44140476 17.53571466 108 19 C108.89203125 19.80179687 109.7840625 20.60359375 110.703125 21.4296875 C115.948601 26.36746798 120.29923038 31.43204754 124.25 37.4375 C124.64509766 38.02861572 125.04019531 38.61973145 125.44726562 39.22875977 C128.1057826 43.47108701 128.1057826 43.47108701 127.59375 46.03125 C127.3978125 46.6809375 127.201875 47.330625 127 48 C127.87060369 50.94485629 127.87060369 50.94485629 129.25 54.0625 C135.27225791 68.97555648 135.27225791 68.97555648 135 77 C141.20971557 72.6676403 144.95305689 67.44510602 146.40820312 59.87695312 C146.90579874 56.6330648 147.33839864 53.38240695 147.76416016 50.12841797 C148.98440228 41.61035157 152.22857826 35.15713261 157 28 C157.66 28 158.32 28 159 28 C159 27.34 159 26.68 159 26 C161.265625 24.30859375 161.265625 24.30859375 164.25 22.4375 C165.22453125 21.81746094 166.1990625 21.19742187 167.203125 20.55859375 C172.01817776 17.87534507 175.74269044 17.88650639 181.25 17.9375 C183.14492188 17.95103516 183.14492188 17.95103516 185.078125 17.96484375 C186.04234375 17.97644531 187.0065625 17.98804688 188 18 C188 18.66 188 19.32 188 20 C189.11375 20.0928125 189.11375 20.0928125 190.25 20.1875 C193.96754528 21.28586565 194.99866166 22.71208701 197 26 C198.15783642 30.63134568 198.47601332 33.83579579 196 38 C192.13330059 41.74015288 189.30430254 42.56522164 184 43.0625 C179.20825875 43.52205277 175.8471571 44.00108761 172 47 C168.75049736 51.11404922 168.15996504 55.481725 167.25 60.5 C164.68932002 73.11802866 159.06161297 85.62559136 148 93 C148.825 93.495 149.65 93.99 150.5 94.5 C153.15220735 97.15220735 153.39544037 97.49725226 153.5 101 C153.46199867 103.43208487 153.0089192 104.97969002 152.02734375 107.21484375 C148.78224915 110.07227773 145.24490052 109.55919375 141.0625 109.5625 C133.95359375 109.4756245 133.95359375 109.4756245 128 113 C125.640625 113.29296875 125.640625 113.29296875 123.25 113.1875 C122.12416504 113.13783081 122.12416504 113.13783081 120.97558594 113.0871582 C120.32364258 113.058396 119.67169922 113.02963379 119 113 C118.35998869 118.00992463 117.92604745 122.93837141 117.7890625 127.98828125 C117.76070312 129.02404297 117.73234375 130.05980469 117.703125 131.12695312 C117.65056726 133.26999509 117.60644416 135.41325879 117.5703125 137.55664062 C117.539375 138.58595703 117.5084375 139.61527344 117.4765625 140.67578125 C117.45674316 141.60302002 117.43692383 142.53025879 117.41650391 143.4855957 C116.92198467 146.47097297 116.12078296 147.85723369 114 150 C111.20609236 150.57148111 108.81772976 150.88106985 106 151 C104.87561523 151.04906494 104.87561523 151.04906494 103.72851562 151.09912109 C101.40101009 151.16859152 99.07847961 151.1855596 96.75 151.1875 C95.96109375 151.19974609 95.1721875 151.21199219 94.359375 151.22460938 C87.29727744 151.2425032 87.29727744 151.2425032 84 149 C83.66925451 145.36179956 83.51194458 143.6226914 85.8125 140.6875 C88 139 88 139 91 138 C89.01681318 132.66142133 86.21839631 127.83233457 83.4609375 122.86328125 C82 120 82 120 82 118 C81.01 118.495 81.01 118.495 80 119 C77.44842345 119.0716735 74.92527029 119.09308442 72.375 119.0625 C71.66859375 119.05798828 70.9621875 119.05347656 70.234375 119.04882812 C68.48954725 119.03703875 66.744763 119.01910324 65 119 C64.96261719 119.92039062 64.92523437 120.84078125 64.88671875 121.7890625 C63.66380236 145.33619764 63.66380236 145.33619764 59 150 C56.12670898 150.24291992 56.12670898 150.24291992 52.49609375 150.23046875 C51.19865234 150.22853516 49.90121094 150.22660156 48.56445312 150.22460938 C47.54943726 150.21530396 47.54943726 150.21530396 46.51391602 150.20581055 C44.44209529 150.18754052 42.37072103 150.18530095 40.29882812 150.18554688 C30.14008257 150.14008257 30.14008257 150.14008257 29 149 C28.60222154 145.41999388 28.53111759 143.64254256 30.6875 140.6875 C33.21522633 138.84294295 34.95935401 138.5092956 38 138 C37.80889648 137.47269287 37.61779297 136.94538574 37.42089844 136.40209961 C27 107.51263538 27 107.51263538 27 99 C25.68 98.34 24.36 97.68 23 97 C22.49786483 78.28194595 23.1325678 59.3864607 27 41 C25.9171875 40.80083984 25.9171875 40.80083984 24.8125 40.59765625 C11.62364402 37.79502435 0.41170594 30.30420051 -10 22 C-9.46674529 16.64245655 -7.57420028 12.80035889 -5 8.1875 C-4.44699219 7.1675293 -4.44699219 7.1675293 -3.8828125 6.12695312 C-1.1799794 1.1799794 -1.1799794 1.1799794 0 0 Z " fill="#26A5A4" transform="translate(597,433)"/>
<path d="M0 0 C1.89492188 0.01353516 1.89492188 0.01353516 3.828125 0.02734375 C4.79234375 0.03894531 5.7565625 0.05054688 6.75 0.0625 C6.75 0.7225 6.75 1.3825 6.75 2.0625 C7.4925 2.124375 8.235 2.18625 9 2.25 C12.71754528 3.34836565 13.74866166 4.77458701 15.75 8.0625 C16.90783642 12.69384568 17.22601332 15.89829579 14.75 20.0625 C10.88330059 23.80265288 8.05430254 24.62772164 2.75 25.125 C-2.04174125 25.58455277 -5.4028429 26.06358761 -9.25 29.0625 C-12.49950264 33.17654922 -13.09003496 37.544225 -14 42.5625 C-16.56067998 55.18052866 -22.18838703 67.68809136 -33.25 75.0625 C-32.425 75.5575 -31.6 76.0525 -30.75 76.5625 C-28.09779265 79.21470735 -27.85455963 79.55975226 -27.75 83.0625 C-27.78800133 85.49458487 -28.2410808 87.04219002 -29.22265625 89.27734375 C-32.46775085 92.13477773 -36.00509948 91.62169375 -40.1875 91.625 C-47.29640625 91.5381245 -47.29640625 91.5381245 -53.25 95.0625 C-55.609375 95.35546875 -55.609375 95.35546875 -58 95.25 C-59.12583496 95.20033081 -59.12583496 95.20033081 -60.27441406 95.1496582 C-60.92635742 95.120896 -61.57830078 95.09213379 -62.25 95.0625 C-62.89001131 100.07242463 -63.32395255 105.00087141 -63.4609375 110.05078125 C-63.48929688 111.08654297 -63.51765625 112.12230469 -63.546875 113.18945312 C-63.59943274 115.33249509 -63.64355584 117.47575879 -63.6796875 119.61914062 C-63.710625 120.64845703 -63.7415625 121.67777344 -63.7734375 122.73828125 C-63.79325684 123.66552002 -63.81307617 124.59275879 -63.83349609 125.5480957 C-64.32801533 128.53347297 -65.12921704 129.91973369 -67.25 132.0625 C-70.04390764 132.63398111 -72.43227024 132.94356985 -75.25 133.0625 C-76.37438477 133.11156494 -76.37438477 133.11156494 -77.52148438 133.16162109 C-79.84898991 133.23109152 -82.17152039 133.2480596 -84.5 133.25 C-85.28890625 133.26224609 -86.0778125 133.27449219 -86.890625 133.28710938 C-93.95272256 133.3050032 -93.95272256 133.3050032 -97.25 131.0625 C-97.58074549 127.42429956 -97.73805542 125.6851914 -95.4375 122.75 C-93.25 121.0625 -93.25 121.0625 -90.25 120.0625 C-92.23318682 114.72392133 -95.03160369 109.89483457 -97.7890625 104.92578125 C-99.25 102.0625 -99.25 102.0625 -99.25 100.0625 C-100.24 100.5575 -100.24 100.5575 -101.25 101.0625 C-103.80157655 101.1341735 -106.32472971 101.15558442 -108.875 101.125 C-109.58140625 101.12048828 -110.2878125 101.11597656 -111.015625 101.11132812 C-112.76045275 101.09953875 -114.505237 101.08160324 -116.25 101.0625 C-116.28738281 101.98289062 -116.32476563 102.90328125 -116.36328125 103.8515625 C-117.58619764 127.39869764 -117.58619764 127.39869764 -122.25 132.0625 C-125.12329102 132.30541992 -125.12329102 132.30541992 -128.75390625 132.29296875 C-130.05134766 132.29103516 -131.34878906 132.28910156 -132.68554688 132.28710938 C-133.36222412 132.28090576 -134.03890137 132.27470215 -134.73608398 132.26831055 C-136.80790471 132.25004052 -138.87927897 132.24780095 -140.95117188 132.24804688 C-151.10991743 132.20258257 -151.10991743 132.20258257 -152.25 131.0625 C-152.64777846 127.48249388 -152.71888241 125.70504256 -150.5625 122.75 C-148.03477367 120.90544295 -146.29064599 120.5717956 -143.25 120.0625 C-143.44110352 119.53519287 -143.63220703 119.00788574 -143.82910156 118.46459961 C-155.31816711 86.61389593 -155.31816711 86.61389593 -153.25 81.0625 C-152.53714844 81.26746094 -151.82429687 81.47242188 -151.08984375 81.68359375 C-150.13207031 81.95300781 -149.17429687 82.22242188 -148.1875 82.5 C-147.24777344 82.76683594 -146.30804687 83.03367187 -145.33984375 83.30859375 C-139.49952001 84.73360321 -133.84096248 85.18992654 -127.83984375 85.1953125 C-126.80580162 85.19674759 -126.80580162 85.19674759 -125.75086975 85.19821167 C-124.2978608 85.19888819 -122.84484874 85.19707099 -121.3918457 85.19287109 C-119.21753772 85.18757319 -117.0434418 85.19280415 -114.86914062 85.19921875 C-113.44270774 85.19917818 -112.01627432 85.19788371 -110.58984375 85.1953125 C-109.89112152 85.19452698 -109.19239929 85.19374146 -108.47250366 85.19293213 C-102.59694531 85.14763494 -96.84348854 84.61081795 -91.01000977 83.88623047 C-89.64380493 83.97348389 -89.64380493 83.97348389 -88.25 84.0625 C-86.61767578 86.00927734 -86.61767578 86.00927734 -85.25 88.0625 C-83.34012961 88.69561705 -83.34012961 88.69561705 -81.23828125 88.671875 C-80.10229492 88.72021484 -80.10229492 88.72021484 -78.94335938 88.76953125 C-77.76483398 88.79080078 -77.76483398 88.79080078 -76.5625 88.8125 C-75.36657227 88.85697266 -75.36657227 88.85697266 -74.14648438 88.90234375 C-72.18153251 88.97294082 -70.21576023 89.01999708 -68.25 89.0625 C-67.88443914 73.83079767 -70.46733537 62.80166752 -76.4609375 48.90771484 C-77.43009923 46.64133973 -78.34859243 44.35658226 -79.25 42.0625 C-78.69014404 41.77004395 -78.13028809 41.47758789 -77.5534668 41.17626953 C-75.01389935 39.84841523 -72.47568886 38.51798744 -69.9375 37.1875 C-69.05642578 36.72730469 -68.17535156 36.26710938 -67.26757812 35.79296875 C-66.42001953 35.34824219 -65.57246094 34.90351563 -64.69921875 34.4453125 C-63.91893311 34.03684082 -63.13864746 33.62836914 -62.3347168 33.20751953 C-60.05312614 31.99309789 -60.05312614 31.99309789 -57.25 30.0625 C-56.26 30.0625 -55.27 30.0625 -54.25 30.0625 C-45.96493383 50.66054987 -45.96493383 50.66054987 -46.25 59.0625 C-40.04028443 54.7301403 -36.29694311 49.50760602 -34.84179688 41.93945312 C-34.34420126 38.6955648 -33.91160136 35.44490695 -33.48583984 32.19091797 C-32.26559772 23.67285157 -29.02142174 17.21963261 -24.25 10.0625 C-23.59 10.0625 -22.93 10.0625 -22.25 10.0625 C-22.25 9.4025 -22.25 8.7425 -22.25 8.0625 C-19.984375 6.37109375 -19.984375 6.37109375 -17 4.5 C-16.02546875 3.87996094 -15.0509375 3.25992187 -14.046875 2.62109375 C-9.23182224 -0.06215493 -5.50730956 -0.05099361 0 0 Z " fill="#F48526" transform="translate(778.25,450.9375)"/>
<path d="M0 0 C1.65511093 -0.01489471 1.65511093 -0.01489471 3.34365845 -0.03009033 C6.98149138 -0.05921663 10.61914986 -0.07291817 14.25708008 -0.08398438 C16.7966563 -0.09549735 19.33623251 -0.10701269 21.87580872 -0.11853027 C26.51860627 -0.13683944 31.16135199 -0.14945315 35.80417651 -0.15552378 C42.60748765 -0.16447187 49.40999247 -0.19952248 56.21305865 -0.25752497 C62.13277657 -0.30621881 68.05229695 -0.32142442 73.97222328 -0.32487488 C76.47711894 -0.33090373 78.98201221 -0.34687869 81.48677635 -0.37324524 C108.26881581 -0.63503512 108.26881581 -0.63503512 118.0587616 8.36218262 C121.79469635 12.20907593 124.1626664 16.20469691 125.83911133 21.32226562 C126.15879883 22.08410156 126.47848633 22.8459375 126.80786133 23.63085938 C127.76833227 26.48114582 128.19920787 28.32146115 127.83911133 31.32226562 C124.98252264 35.24253608 121.56171156 38.23985779 117.83911133 41.32226562 C116.84911133 42.31226563 116.84911133 42.31226563 115.83911133 43.32226562 C115.82976562 42.74782715 115.82041992 42.17338867 115.81079102 41.58154297 C115.75676101 38.95261259 115.67318238 36.32539996 115.58911133 33.69726562 C115.57493164 32.79363281 115.56075195 31.89 115.54614258 30.95898438 C115.33788009 25.25259224 114.6086667 21.86398318 110.83911133 17.32226562 C109.69442383 15.93007813 109.69442383 15.93007813 108.52661133 14.50976562 C99.63379523 7.64253021 77.93378176 11.13864918 67.21801758 11.11914062 C65.63184285 11.11489956 65.63184285 11.11489956 64.01362419 11.11057281 C58.43469884 11.09569988 52.85579863 11.08639126 47.27685547 11.08203125 C41.53507461 11.07651473 35.79352706 11.05238624 30.0518198 11.0240593 C25.61050229 11.00542117 21.16924142 11.00022703 16.72788811 10.99869537 C14.61046997 10.99567905 12.49305259 10.98768519 10.37567329 10.97451019 C7.41872329 10.95739929 4.46235091 10.9593405 1.50537109 10.96582031 C0.6413266 10.95660553 -0.2227179 10.94739075 -1.11294556 10.93789673 C-7.02666463 10.97836131 -13.35519525 11.50759435 -17.75984859 15.92634201 C-19.16088867 17.32226562 -19.16088867 17.32226562 -21.16088867 17.32226562 C-23.95008022 24.92521499 -24.6035538 31.78261135 -24.59326172 39.84033203 C-24.60345337 41.05123505 -24.61364502 42.26213806 -24.62414551 43.50973511 C-24.64899298 46.79835774 -24.6609698 50.08671155 -24.66699958 53.37541246 C-24.67644089 56.82410435 -24.70264845 60.27266997 -24.727005 63.72128296 C-24.77051652 70.23746261 -24.79915734 76.75361754 -24.82232839 83.26989782 C-24.84946285 90.69448738 -24.89336891 98.11894896 -24.93861711 105.54344678 C-25.03124327 120.80298706 -25.10302428 136.0625515 -25.16088867 151.32226562 C-24.50088867 151.32226562 -23.84088867 151.32226562 -23.16088867 151.32226562 C-22.9056543 152.20978516 -22.9056543 152.20978516 -22.64526367 153.11523438 C-20.759308 159.26465368 -19.1187934 163.71483383 -13.20457458 166.92883301 C-8.3114851 168.92701324 -3.4288162 168.75733158 1.78808594 168.7421875 C2.86865768 168.75065704 3.94922943 168.75912659 5.06254578 168.76785278 C8.62230305 168.79118624 12.18162722 168.79224582 15.74145508 168.79101562 C18.22335482 168.79811895 20.70525292 168.8058182 23.18714905 168.81408691 C28.38457812 168.82752306 33.58185531 168.8291041 38.77929688 168.82324219 C45.43182571 168.81734447 52.08335895 168.84794502 58.73578548 168.88835907 C63.85998953 168.91423642 68.9840179 168.91711344 74.10827827 168.91346741 C76.56063229 168.91515834 79.01299445 168.92479814 81.46528435 168.94261169 C84.89759743 168.96480267 88.32843318 168.95509724 91.76074219 168.9375 C92.76826538 168.95076324 93.77578857 168.96402649 94.81384277 168.97769165 C101.3704949 168.89977919 105.82842818 167.67261653 110.83911133 163.32226562 C116.24579691 156.77178006 116.57568114 149.12644716 116.54614258 140.97070312 C116.56882454 139.26063583 116.56882454 139.26063583 116.59196472 137.51602173 C116.63461768 133.90956495 116.6436586 130.3039488 116.65161133 126.69726562 C116.67477286 124.23760821 116.70014161 121.77797052 116.7277832 119.31835938 C116.79041435 113.31965328 116.82552588 107.32127271 116.83911133 101.32226562 C117.37536133 102.00289063 117.91161133 102.68351562 118.46411133 103.38476562 C120.62176269 106.16732298 120.62176269 106.16732298 122.41513062 107.87176514 C126.37236686 111.89700074 127.53638513 114.75410504 127.62149048 120.38922119 C127.60307098 121.2591571 127.58465149 122.12909302 127.56567383 123.02539062 C127.56716934 124.40304596 127.56716934 124.40304596 127.56869507 125.80853271 C127.56403229 127.74500206 127.54468487 129.68148562 127.51147461 131.61767578 C127.46446372 134.55028313 127.47034039 137.47922278 127.48364258 140.41210938 C127.44969104 151.55266402 127.15759872 161.78892877 120.33911133 171.13476562 C108.78300416 182.46108432 95.18949866 181.16206468 80.06176758 181.01367188 C77.64383669 181.01008888 75.22590156 181.00873859 72.80796814 181.00950623 C67.75533666 181.00483064 62.70334855 180.98011274 57.65087891 180.93969727 C51.2043201 180.88875763 44.75846692 180.87725485 38.31173038 180.87953281 C33.32284424 180.87871333 28.33410947 180.86219933 23.34527397 180.84052849 C20.96965108 180.83104411 18.59401121 180.82508415 16.21837044 180.82284737 C-17.72727281 180.75588149 -17.72727281 180.75588149 -28.34838867 170.13476562 C-33.17839002 162.63993595 -36.27246604 155.923282 -36.30133057 146.92218018 C-36.30704071 145.85130157 -36.31275085 144.78042297 -36.31863403 143.67709351 C-36.31975189 142.51231476 -36.32086975 141.34753601 -36.32202148 140.14746094 C-36.32698639 138.91273041 -36.33195129 137.67799988 -36.33706665 136.40585327 C-36.34915283 133.02547177 -36.35662761 129.64515194 -36.36107731 126.2647562 C-36.36401489 124.1495112 -36.36812099 122.03427154 -36.37258148 119.91902924 C-36.38624601 113.29128078 -36.39591759 106.66354462 -36.39978337 100.03578305 C-36.40426072 92.4029568 -36.42179786 84.77030993 -36.45078397 77.13753819 C-36.47245011 71.22566467 -36.48249029 65.31384144 -36.48382449 59.40192866 C-36.48486906 55.87657813 -36.49070211 52.35139644 -36.5086441 48.82608795 C-36.52829364 44.8888835 -36.52381619 40.9519006 -36.51733398 37.01464844 C-36.52654877 35.85796661 -36.53576355 34.70128479 -36.54525757 33.509552 C-36.49495021 23.73418568 -34.93953252 16.32069555 -28.11791992 9.11132812 C-19.64772117 1.3681125 -11.12191548 0.02411043 0 0 Z " fill="#6CACDC" transform="translate(446.160888671875,325.677734375)"/>
<path d="M0 0 C0.14715692 7.3905476 -0.29223008 14.64424835 -1 22 C0.0725 21.95875 1.145 21.9175 2.25 21.875 C7.49253731 22.04975124 7.49253731 22.04975124 10 24 C11.65479843 26.8367973 12 28.71365531 12 32 C10.61043802 36.16868595 8.52599427 37.44928074 5 40 C2.69 38.68 0.38 37.36 -2 36 C-1.34 36.99 -0.68 37.98 0 39 C0.55190256 42.49538289 0.19170233 43.71575172 -1.8125 46.6875 C-5.65380951 50.74831291 -8.56567849 51.38479379 -14 52 C-11.69 52.33 -9.38 52.66 -7 53 C-7.0721875 53.64324219 -7.144375 54.28648437 -7.21875 54.94921875 C-8.45453164 66.98092607 -8.09623037 78.07768979 -6 90 C-9.96 90.99 -13.92 91.98 -18 93 C-18 93.66 -18 94.32 -18 95 C-17.09636719 94.95359375 -16.19273437 94.9071875 -15.26171875 94.859375 C-14.08222656 94.82328125 -12.90273438 94.7871875 -11.6875 94.75 C-10.51574219 94.70359375 -9.34398437 94.6571875 -8.13671875 94.609375 C-5 95 -5 95 -3.14453125 96.765625 C-2.06721777 98.86877622 -1.41419508 100.68050756 -1 103 C-1.68707031 103.24234375 -2.37414062 103.4846875 -3.08203125 103.734375 C-4.43361328 104.23710937 -4.43361328 104.23710937 -5.8125 104.75 C-6.70582031 105.07484375 -7.59914063 105.3996875 -8.51953125 105.734375 C-11.24295161 107.12396271 -12.38324384 108.44326932 -14 111 C-13.45472656 110.74605469 -12.90945313 110.49210937 -12.34765625 110.23046875 C-6.99333489 107.78670157 -1.61739002 105.7529444 4 104 C3.63648438 104.64324219 3.27296875 105.28648437 2.8984375 105.94921875 C-1.10961122 113.1534294 -4.62809105 120.47896904 -8 128 C-12.75496998 125.83865001 -16.18272035 122.49977435 -20 119 C-20.85271484 118.26330078 -20.85271484 118.26330078 -21.72265625 117.51171875 C-31.98111836 108.12631725 -42.25865242 92.23059665 -43.2734375 78.2265625 C-43.78209774 62.03450691 -39.30510304 50.31294197 -28.45703125 38.1484375 C-23.04352405 32.38389366 -17.3018447 27.22861417 -10 24 C-9.01 24 -8.02 24 -7 24 C-7.02320313 22.90300781 -7.04640625 21.80601562 -7.0703125 20.67578125 C-7.08907921 19.221361 -7.10727844 17.76693336 -7.125 16.3125 C-7.14175781 15.59126953 -7.15851562 14.87003906 -7.17578125 14.12695312 C-7.21381217 9.96256725 -6.98013282 6.69808778 -5 3 C-1.5862069 0 -1.5862069 0 0 0 Z " fill="#F48524" transform="translate(596,324)"/>
<path d="M0 0 C1.8125 0.1875 1.8125 0.1875 4 1 C7.85782657 6.28665123 8.75309561 11.53413626 8 18 C6.45506884 24.56130401 4.37884085 29.8703865 -1.12890625 33.98046875 C-4.06552142 35.58058683 -6.68969715 35.93634033 -10 36 C-13 35 -13 35 -14.1875 32.9375 C-14.455625 32.298125 -14.72375 31.65875 -15 31 C-15.66 31.99 -16.32 32.98 -17 34 C-17.309375 32.9171875 -17.309375 32.9171875 -17.625 31.8125 C-19.45248163 28.0744694 -21.70438806 26.50753083 -25 24 C-25.05618566 26.02678075 -25.05618566 26.02678075 -24.640625 28.1015625 C-23.64600677 34.52679626 -24.26875226 38.62067464 -28 44 C-28.66 44.66 -29.32 45.32 -30 46 C-30.46400177 47.65714918 -30.92470086 49.31538634 -31.359375 50.98046875 C-32.48542544 54.53027409 -34.2686655 57.71046445 -36 61 C-30.06 60.505 -30.06 60.505 -24 60 C-24 59.34 -24 58.68 -24 58 C-22.68 57.67 -21.36 57.34 -20 57 C-20.56869396 60.29842497 -21.28374199 61.99620311 -24 64 C-27.35546875 64.51171875 -27.35546875 64.51171875 -31.1875 64.6875 C-32.45980469 64.75324219 -33.73210937 64.81898438 -35.04296875 64.88671875 C-36.50669922 64.94279297 -36.50669922 64.94279297 -38 65 C-38.26554687 65.61488281 -38.53109375 66.22976563 -38.8046875 66.86328125 C-39.33449219 68.07564453 -39.33449219 68.07564453 -39.875 69.3125 C-40.39707031 70.51326172 -40.39707031 70.51326172 -40.9296875 71.73828125 C-42 74 -42 74 -44 77 C-42.81277344 77.31904297 -42.81277344 77.31904297 -41.6015625 77.64453125 C-35.92740994 79.78003118 -30.9530988 83.08994335 -25.8125 86.27539062 C-24.99523437 86.76587891 -24.17796875 87.25636719 -23.3359375 87.76171875 C-22.59907715 88.21506592 -21.8622168 88.66841309 -21.10302734 89.13549805 C-19.04163291 90.175442 -19.04163291 90.175442 -16.83447266 89.78442383 C-14.02833516 88.58451436 -13.30940971 86.68117227 -12 84 C-11.30420546 81.80869466 -11.30420546 81.80869466 -11 80 C-11.680625 79.95875 -12.36125 79.9175 -13.0625 79.875 C-16.13395884 78.96009737 -17.10425216 78.14260179 -19.375 76 C-22.78202645 72.86136076 -25.3746824 72.45346251 -30 72 C-30.66 71.01 -31.32 70.02 -32 69 C-29.69 69 -27.38 69 -25 69 C-25 68.01 -25 67.02 -25 66 C-24.34 66 -23.68 66 -23 66 C-22.34 66.66 -21.68 67.32 -21 68 C-18.6670386 68.04166002 -16.3329614 68.04166002 -14 68 C-13.34 68.33 -12.68 68.66 -12 69 C-12 68.01 -12 67.02 -12 66 C-12.66 66 -13.32 66 -14 66 C-14 64.68 -14 63.36 -14 62 C-13.01 62 -12.02 62 -11 62 C-10.71125 61.38125 -10.4225 60.7625 -10.125 60.125 C-9 58 -9 58 -7 56 C-5.68 56 -4.36 56 -3 56 C-3 56.66 -3 57.32 -3 58 C-6.46153846 61 -6.46153846 61 -9 61 C-9.33 63.31 -9.66 65.62 -10 68 C-3.04315029 65.06866721 1.13732803 62.56654234 5 56 C3.02 56 1.04 56 -1 56 C-0.505 55.01 -0.505 55.01 0 54 C1.98 54 3.96 54 6 54 C6 52.35 6 50.7 6 49 C6.99 49 7.98 49 9 49 C9.4021875 50.60875 9.4021875 50.60875 9.8125 52.25 C10.71439004 55.88143706 10.71439004 55.88143706 12.546875 57.9296875 C15.13132388 61.61183241 14.6145035 65.68481986 14 70 C11.29442228 75.41115545 7.66702852 78.84042238 2.125 81.25 C-1.34654248 82.08317019 -4.44240205 82.14230392 -8 82 C-8.28875 83.0725 -8.5775 84.145 -8.875 85.25 C-9.72820109 88.09400364 -10.5636503 90.43508983 -12 93 C-7.29026351 94.76615118 -2.96916636 95.48594831 2 96 C2 96.99 2 97.98 2 99 C-2.35049147 99.27769094 -5.46210862 98.9664595 -9.5625 97.4375 C-14.75861117 95.57358195 -18.05183518 96.36309996 -23.25 98.0625 C-31.3664874 100.09162185 -39.33728728 99.46359964 -47 96 C-48.64453125 94.58203125 -48.64453125 94.58203125 -50.0625 93.125 C-51.5165625 92.073125 -51.5165625 92.073125 -53 91 C-55.31296103 91.41419222 -57.27133331 92.24795811 -59.44140625 93.14453125 C-67.03386882 95.6830798 -74.96696735 94.45482305 -82 91 C-87.5081291 87.54140731 -90.96426111 82.10721668 -93 76 C-93.69934097 68.9034088 -93.43916031 62.80505579 -89 57 C-86.19295565 54.01842439 -83.66812324 52.20453103 -79.546875 51.69921875 C-77.3391483 51.68880494 -75.19534986 51.77598471 -73 52 C-73 52.66 -73 53.32 -73 54 C-73.59167969 54.08636719 -74.18335938 54.17273438 -74.79296875 54.26171875 C-80.35631451 55.25095968 -83.3304027 56.44080335 -87 61 C-90.11826392 65.67739588 -89.46500765 70.52162859 -89 76 C-86.95553555 81.91818657 -83.31977142 85.59847143 -78 88.8125 C-72.68613703 90.8607952 -66.57323495 90.71958223 -61 90 C-58.27580706 88.55365706 -58.27580706 88.55365706 -56 87 C-55.34 87 -54.68 87 -54 87 C-54.061875 85.741875 -54.12375 84.48375 -54.1875 83.1875 C-54.17371263 79.29256864 -54.17371263 79.29256864 -52.8125 77 C-50.44004321 75.69105832 -48.6664882 75.78379825 -46 76 C-45.896875 75.319375 -45.79375 74.63875 -45.6875 73.9375 C-44.85274981 70.37084011 -43.50527246 67.33777806 -42 64 C-42.845625 63.835 -43.69125 63.67 -44.5625 63.5 C-49.92036842 61.16202105 -53.35717924 56.95816894 -56.17578125 51.8828125 C-57.4288212 47.50014195 -57.4090046 43.22460036 -57.4375 38.6875 C-57.47037109 37.77548828 -57.50324219 36.86347656 -57.53710938 35.92382812 C-57.58890216 29.35556136 -56.22280259 25.07394569 -52 20 C-48.67370763 16.97609785 -46.1716092 15.75711308 -41.75 15.5625 C-31.13181867 16.09787049 -22.31804219 20.42059916 -15 28 C-12.86690808 29.23512079 -12.86690808 29.23512079 -11 30 C-11 30.99 -11 31.98 -11 33 C-5.51627266 31.81723528 -2.62532688 30.5316586 1 26 C4.17458654 20.41710643 4.79897253 15.28801754 4 9 C2.69280737 5.63121229 2.69280737 5.63121229 1 3 C0.505 1.515 0.505 1.515 0 0 Z " fill="#424548" transform="translate(536,377)"/>
<path d="M0 0 C4.6171833 1.4937946 7.39145786 3.86213727 11 7 C11.99 7.66 12.98 8.32 14 9 C15.1875 12.625 15.1875 12.625 16 16 C16.88751953 15.96519531 16.88751953 15.96519531 17.79296875 15.9296875 C24.12924626 15.78497643 27.87383948 16.15732755 32.8125 20.4375 C35 23 35 23 35 26 C34.34 26 33.68 26 33 26 C33 27.65 33 29.3 33 31 C30.03 31.495 30.03 31.495 27 32 C28.65 32.33 30.3 32.66 32 33 C29.73042577 38.5707731 25.30071661 42.34964169 20 45 C19.01 45 18.02 45 17 45 C17.48979592 38.51020408 17.48979592 38.51020408 19.9375 36.0625 C22 35 22 35 24 35 C24 34.34 24 33.68 24 33 C19.97936134 34.30399092 18.45815469 35.64797088 16 39 C15.01 39 14.02 39 13 39 C13 40.32 13 41.64 13 43 C13.66 43 14.32 43 15 43 C15 43.99 15 44.98 15 46 C11.7 46 8.4 46 5 46 C4.67 45.01 4.34 44.02 4 43 C3.34 43 2.68 43 2 43 C2 43.99 2 44.98 2 46 C-0.97 46.495 -0.97 46.495 -4 47 C-2.86633204 48.35483035 -2.86633204 48.35483035 0.125 48.1875 C4.56354927 49.11816356 6.15388429 50.55272517 9.35546875 53.56640625 C11.38879795 55.33892838 13.43067067 56.22141536 16 57 C15.54663921 61.87362847 14.2910841 64.39042389 11 68 C7.34321341 67.42655212 4.67113388 66.45548468 1.49609375 64.56640625 C0.67302734 64.08236328 -0.15003906 63.59832031 -0.99804688 63.09960938 C-1.84431641 62.59236328 -2.69058594 62.08511719 -3.5625 61.5625 C-5.25074665 60.56286343 -6.93952973 59.56413215 -8.62890625 58.56640625 C-9.7437439 57.90040405 -9.7437439 57.90040405 -10.88110352 57.22094727 C-12.88745504 56.06485048 -14.91801348 55.01229346 -17 54 C-16.731875 53.505 -16.46375 53.01 -16.1875 52.5 C-14.82334212 49.62808867 -13.75474049 46.69847215 -12.68359375 43.70703125 C-12 42 -12 42 -11 41 C-9.02715358 40.73850342 -7.04574333 40.54007376 -5.0625 40.375 C-3.98097656 40.27960938 -2.89945312 40.18421875 -1.78515625 40.0859375 C1 40 1 40 3 41 C3.33 40.01 3.66 39.02 4 38 C4.99 37.505 4.99 37.505 6 37 C6.33 36.01 6.66 35.02 7 34 C5.02 34.495 5.02 34.495 3 35 C3 35.66 3 36.32 3 37 C-1.06368679 37.77403558 -4.86425173 38.0984702 -9 38 C-8.61376151 35.21908285 -8.28980664 33.37800866 -6.5625 31.125 C-4.7718206 28.95322785 -4.7718206 28.95322785 -4.0625 25.625 C-3 22 -3 22 -0.9375 19.125 C1.86246001 14.60893547 2.57649938 10.11652141 1.60546875 4.8671875 C1.14273975 3.22266863 0.5810815 1.60651945 0 0 Z " fill="#424444" transform="translate(509,400)"/>
<path d="M0 0 C1.8125 0.1875 1.8125 0.1875 4 1 C7.85782657 6.28665123 8.75309561 11.53413626 8 18 C6.45506884 24.56130401 4.37884085 29.8703865 -1.12890625 33.98046875 C-4.06552142 35.58058683 -6.68969715 35.93634033 -10 36 C-13 35 -13 35 -14.1875 32.9375 C-14.455625 32.298125 -14.72375 31.65875 -15 31 C-15.66 31.99 -16.32 32.98 -17 34 C-17.20625 33.278125 -17.4125 32.55625 -17.625 31.8125 C-19.45248163 28.0744694 -21.70438806 26.50753083 -25 24 C-25.05618566 26.02678075 -25.05618566 26.02678075 -24.640625 28.1015625 C-23.64600677 34.52679626 -24.26875226 38.62067464 -28 44 C-28.66 44.66 -29.32 45.32 -30 46 C-30.46400177 47.65714918 -30.92470086 49.31538634 -31.359375 50.98046875 C-32.48542544 54.53027409 -34.2686655 57.71046445 -36 61 C-30.06 60.505 -30.06 60.505 -24 60 C-24 59.34 -24 58.68 -24 58 C-22.02 57.505 -22.02 57.505 -20 57 C-20.56711604 60.28927304 -21.27800905 62.01322723 -24 64 C-27.60025518 64.33319669 -31.13550393 64.31207655 -34.75 64.30078125 C-36.35875 64.64689453 -36.35875 64.64689453 -38 65 C-40.0154578 67.91889181 -40.0154578 67.91889181 -41 71 C-41.66 71 -42.32 71 -43 71 C-42.67 68.69 -42.34 66.38 -42 64 C-42.845625 63.835 -43.69125 63.67 -44.5625 63.5 C-49.92036842 61.16202105 -53.35717924 56.95816894 -56.17578125 51.8828125 C-57.4288212 47.50014195 -57.4090046 43.22460036 -57.4375 38.6875 C-57.47037109 37.77548828 -57.50324219 36.86347656 -57.53710938 35.92382812 C-57.58890216 29.35556136 -56.22280259 25.07394569 -52 20 C-48.67370763 16.97609785 -46.1716092 15.75711308 -41.75 15.5625 C-31.13181867 16.09787049 -22.31804219 20.42059916 -15 28 C-12.86690808 29.23512079 -12.86690808 29.23512079 -11 30 C-11 30.99 -11 31.98 -11 33 C-5.51627266 31.81723528 -2.62532688 30.5316586 1 26 C4.17458654 20.41710643 4.79897253 15.28801754 4 9 C2.69280737 5.63121229 2.69280737 5.63121229 1 3 C0.505 1.515 0.505 1.515 0 0 Z " fill="#494A4B" transform="translate(536,377)"/>
<path d="M0 0 C5.00013755 1.73081684 8.71669754 4.89319822 12 9 C13.90948276 14.72844829 13.91185715 20.77562505 11.375 26.3125 C8.69447866 31.02487559 5.21142321 34.26285893 0 36 C-5.28418874 36.62468123 -9.79235765 36.44813317 -14.359375 33.375 C-18.58195502 29.83607579 -21.55454206 26.591137 -22.51171875 21.0234375 C-22.73207841 14.89895865 -22.31055492 10.65086188 -18 6 C-12.02162363 0.4181486 -8.07646023 -0.67303835 0 0 Z " fill="#F8F5F2" transform="translate(620,377)"/>
<path d="M0 0 C5.752406 2.6557837 9.30237076 6.4122817 11.77734375 12.27734375 C12.66562751 18.25617674 12.78935747 23.70630029 9.21484375 28.77734375 C4.54593214 33.98915206 0.46458717 36.449257 -6.59765625 36.90234375 C-12.74214313 36.65724042 -16.7748532 34.42985697 -21.22265625 30.27734375 C-25.60717014 25.51362866 -25.59955599 20.70721893 -25.36328125 14.4375 C-25.316875 13.72464844 -25.27046875 13.01179688 -25.22265625 12.27734375 C-24.56265625 11.94734375 -23.90265625 11.61734375 -23.22265625 11.27734375 C-23.18527344 12.0971875 -23.14789062 12.91703125 -23.109375 13.76171875 C-23.04363281 14.839375 -22.97789062 15.91703125 -22.91015625 17.02734375 C-22.85214844 18.0946875 -22.79414062 19.16203125 -22.734375 20.26171875 C-22.18221739 23.51565519 -21.539692 24.960308 -19.22265625 27.27734375 C-15.8117071 28.44319566 -15.8117071 28.44319566 -12.22265625 28.27734375 C-9.80983742 26.43598201 -8.57114712 24.97432549 -7.22265625 22.27734375 C-6.70453588 17.47836 -6.55767712 13.53057365 -8.84765625 9.21484375 C-11.77979782 6.82283353 -13.44283197 6.27734375 -17.22265625 6.27734375 C-20.05924212 7.59408208 -20.05924212 7.59408208 -22.22265625 9.27734375 C-20.47938564 4.83992766 -17.38452694 2.52286596 -13.32421875 0.18359375 C-9.03455919 -1.66622227 -4.40225771 -1.43131402 0 0 Z " fill="#F8F7F4" transform="translate(683.22265625,369.72265625)"/>
<path d="M0 0 C0.99 0 1.98 0 3 0 C3.268125 1.0725 3.53625 2.145 3.8125 3.25 C4.71439004 6.88143706 4.71439004 6.88143706 6.546875 8.9296875 C9.13132388 12.61183241 8.6145035 16.68481986 8 21 C5.29442228 26.41115545 1.66702852 29.84042238 -3.875 32.25 C-7.34654248 33.08317019 -10.44240205 33.14230392 -14 33 C-14.33 33.99 -14.66 34.98 -15 36 C-15.25007812 35.38125 -15.50015625 34.7625 -15.7578125 34.125 C-17.22658799 31.61237777 -18.23319008 31.11653853 -20.875 30 C-23.58510424 28.76901908 -24.98281042 28.01823137 -27.0625 25.8125 C-29.78420003 23.26639352 -32.38229023 23.46896238 -36 23 C-36.66 22.01 -37.32 21.02 -38 20 C-35.69 20 -33.38 20 -31 20 C-31 19.01 -31 18.02 -31 17 C-30.34 17 -29.68 17 -29 17 C-28.34 17.66 -27.68 18.32 -27 19 C-24.6670386 19.04166002 -22.3329614 19.04166002 -20 19 C-19.34 19.33 -18.68 19.66 -18 20 C-18 19.01 -18 18.02 -18 17 C-18.66 17 -19.32 17 -20 17 C-20 15.68 -20 14.36 -20 13 C-19.01 13 -18.02 13 -17 13 C-16.566875 12.071875 -16.566875 12.071875 -16.125 11.125 C-15 9 -15 9 -13 7 C-11.68 7 -10.36 7 -9 7 C-9 7.66 -9 8.32 -9 9 C-12.46153846 12 -12.46153846 12 -15 12 C-15.33 14.31 -15.66 16.62 -16 19 C-9.04315029 16.06866721 -4.86267197 13.56654234 -1 7 C-2.98 7 -4.96 7 -7 7 C-6.67 6.34 -6.34 5.68 -6 5 C-4.02 5 -2.04 5 0 5 C0 3.35 0 1.7 0 0 Z " fill="#3A3B3D" transform="translate(542,426)"/>
<path d="M0 0 C5.93034358 0.84350315 10.41813821 6.83810947 14.26171875 11.140625 C15.96925278 13.42131731 16.6773219 15.09408334 16.81640625 17.9453125 C15.15225866 21.55096561 12.91992249 23.07672947 9.69140625 25.3828125 C9.03140625 25.3828125 8.37140625 25.3828125 7.69140625 25.3828125 C8.43390625 26.4346875 8.43390625 26.4346875 9.19140625 27.5078125 C10.92348484 30.82762981 11.08453623 32.68739067 10.69140625 36.3828125 C9.69140625 38.7578125 9.69140625 38.7578125 8.69140625 40.3828125 C13.71129727 44.50169744 17.28999613 44.89492531 23.69140625 44.3828125 C24.02140625 43.3928125 24.35140625 42.4028125 24.69140625 41.3828125 C26.01140625 41.7128125 27.33140625 42.0428125 28.69140625 42.3828125 C28.40067303 45.19323363 27.87577563 46.21628532 25.75390625 48.1328125 C21.35628289 49.92776081 17.37728177 50.08007078 12.69140625 49.3828125 C9.45200969 47.64742148 7.26819491 45.95960116 4.69140625 43.3828125 C0.72971716 44.94906167 -1.56756673 46.42399732 -3.87109375 49.9453125 C-6.0101484 53.15389447 -7.39540596 54.5637732 -11.30859375 55.3828125 C-13.99981121 55.51837756 -16.60949813 55.47430727 -19.30859375 55.3828125 C-18.97859375 54.7228125 -18.64859375 54.0628125 -18.30859375 53.3828125 C-16.69984375 53.228125 -16.69984375 53.228125 -15.05859375 53.0703125 C-10.57830745 52.24892668 -9.20515318 50.79052948 -6.30859375 47.3828125 C-5.81359375 46.8878125 -5.81359375 46.8878125 -5.30859375 46.3828125 C-5.14728795 43.31800229 -5.32709134 41.32731972 -6.30859375 38.3828125 C-1.55859375 40.2578125 -1.55859375 40.2578125 0.69140625 41.3828125 C3.84118256 39.28296163 5.46695925 38.13631313 6.56640625 34.4453125 C6.82624889 31.03460439 6.82624889 31.03460439 5.69140625 26.3828125 C2.06140625 25.7228125 -1.56859375 25.0628125 -5.30859375 24.3828125 C-5.498862 8.01974325 -5.498862 8.01974325 -4.30859375 2.3828125 C-2.30859375 0.3828125 -2.30859375 0.3828125 0 0 Z " fill="#E15D17" transform="translate(600.30859375,321.6171875)"/>
<path d="M0 0 C4.44417626 1.77767051 6.06471777 4.05979039 8.0625 8.375 C11.34791407 18.06877669 13.0635521 27.77257293 12.5 38 C8.5 38 8.5 38 6.5625 36.4609375 C5.881875 35.77257812 5.20125 35.08421875 4.5 34.375 C-1.35604376 28.90741685 -8.57487044 24.63773461 -16.5 23 C-15.96848568 18.25240603 -13.7694095 14.83308505 -11.1875 10.9375 C-10.79626953 10.32583984 -10.40503906 9.71417969 -10.00195312 9.08398438 C-4.08017736 0 -4.08017736 0 0 0 Z " fill="#E45F17" transform="translate(697.5,310)"/>
<path d="M0 0 C3.35743559 3.042676 3.94780837 6.36326213 4.3125 10.8125 C4.28760029 15.30274837 2.76331284 17.54585895 0 21 C-0.886875 20.360625 -1.77375 19.72125 -2.6875 19.0625 C-5.69211428 17.19170243 -7.5510371 16.40576034 -11 16 C-11 16.66 -11 17.32 -11 18 C-10.030625 18.268125 -9.06125 18.53625 -8.0625 18.8125 C-7.051875 19.204375 -6.04125 19.59625 -5 20 C-4.67 20.99 -4.34 21.98 -4 23 C-10.39259148 23.22043419 -15.42814816 23.30807217 -20.4375 18.8125 C-22 16 -22 16 -22.25 12.625 C-20.29944536 6.96839153 -16.08067368 3.83257466 -11.0234375 0.82421875 C-7.43326719 -0.63818653 -3.79894315 -0.59831552 0 0 Z " fill="#F3F3F1" transform="translate(505,399)"/>
<path d="M0 0 C0.66 0 1.32 0 2 0 C2.495 0.61875 2.99 1.2375 3.5 1.875 C6.25775039 4.21908783 7.33679672 4.368676 10.8125 4.875 C15.63083595 5.6544367 18.0077385 7.24655873 21.4609375 10.6015625 C23.43415769 12.39448846 25.46550579 13.23197145 28 14 C27.54663921 18.87362847 26.2910841 21.39042389 23 25 C19.34321341 24.42655212 16.67113388 23.45548468 13.49609375 21.56640625 C12.67302734 21.08236328 11.84996094 20.59832031 11.00195312 20.09960938 C10.15568359 19.59236328 9.30941406 19.08511719 8.4375 18.5625 C6.74925335 17.56286343 5.06047027 16.56413215 3.37109375 15.56640625 C2.62786865 15.12240479 1.88464355 14.67840332 1.11889648 14.22094727 C-0.88745504 13.06485048 -2.91801348 12.01229346 -5 11 C-4.731875 10.484375 -4.46375 9.96875 -4.1875 9.4375 C-2.67650593 6.33598585 -1.34427274 3.17737194 0 0 Z " fill="#F5F4F3" transform="translate(497,443)"/>
<path d="M0 0 C0.99 0 1.98 0 3 0 C1.47987167 3.45483712 -0.62614635 6.31495464 -2.87890625 9.31640625 C-4.18551179 11.11886765 -4.18551179 11.11886765 -5 14 C-3.948125 13.9175 -2.89625 13.835 -1.8125 13.75 C2 14 2 14 4.875 15.5625 C7.68114993 18.78131904 8 20.75360376 8 25 C5.82758621 30.5862069 5.82758621 30.5862069 3 32 C-3.33223684 32.46052632 -3.33223684 32.46052632 -5.8125 30.75 C-8.59346875 26.65173026 -9.22890781 24.03597173 -9 19 C-13.67613865 22.10312779 -13.67613865 22.10312779 -15.625 27.0625 C-14.87971888 30.56532128 -13.64799722 31.68300243 -11 34 C-11 34.66 -11 35.32 -11 36 C-14.01326538 35.67715014 -15.03461538 34.96634616 -17.25 32.8125 C-19.41870965 29.32707378 -19.86947347 28.03119516 -19 24 C-16.99385754 20.97712048 -14.83781779 18.2725614 -12 16 C-10.68 16 -9.36 16 -8 16 C-7.95875 15.01 -7.9175 14.02 -7.875 13 C-7.16736625 7.74635551 -3.66977339 3.66977339 0 0 Z " fill="#4E4E50" transform="translate(473,423)"/>
<path d="M0 0 C3.27163879 1.04692441 5.13342367 2.21676044 7.20703125 4.98828125 C9.11149872 9.16190146 8.87634376 13.5528572 8.125 18 C6.32381522 21.00197464 5.22167268 22.45166366 2.125 24 C-1.45029739 24.38861928 -3.20140241 24.50519819 -6.125 22.3125 C-9.61980219 17.69436853 -10.48390255 13.78457423 -9.875 8 C-7.45435209 3.57605727 -5.44048025 0 0 0 Z " fill="#262525" transform="translate(608.875,382)"/>
<path d="M0 0 C3.19550756 2.70923467 4.68213291 4.29457395 5.44921875 8.41015625 C5.63910086 12.75125419 5.19454003 15.5735084 3.375 19.5625 C1 22 1 22 -2 23 C-5.14510302 23 -6.47844798 22.82595146 -9 21 C-12.8026547 16.89762868 -12.48769569 13.2288404 -12.36328125 7.859375 C-11.89966079 4.21023335 -10.79081515 2.38040116 -8 0 C-4.95588012 -1.52205994 -3.23094106 -0.95027678 0 0 Z " fill="#262525" transform="translate(672,376)"/>
<path d="M0 0 C2 3 2 3 1.9375 4.875 C0.59251682 7.92362855 -1.57671253 9.75845909 -4 12 C-4.33 12.33 -4.66 12.66 -5 13 C-5 14.98 -5 16.96 -5 19 C-1.04 20.98 2.92 22.96 7 25 C7 26.32 7 27.64 7 29 C3.23781511 28.21061299 0.32055006 26.62296781 -3 24.7421875 C-5.45794954 23.83005779 -6.59087507 24.02923447 -9 25 C-10.03145371 26.30915279 -11.03542166 27.64082143 -12 29 C-12.66 29 -13.32 29 -14 29 C-13.36585366 24.30731707 -13.36585366 24.30731707 -11.4375 22.6875 C-9.00678714 19.83405446 -9.82127283 16.6341192 -10 13 C-10.7425 12.9175 -11.485 12.835 -12.25 12.75 C-15.61204018 11.83307995 -16.96464165 10.81818848 -19 8 C-18.9375 5.375 -18.9375 5.375 -18 3 C-12.78115007 -0.47923329 -6.16874948 -0.91712382 0 0 Z " fill="#86300E" transform="translate(651,404)"/>
<path d="M0 0 C0.83595703 0.01353516 1.67191406 0.02707031 2.53320312 0.04101562 C4.58491498 0.07618783 6.63629275 0.12998952 8.6875 0.1875 C8.71443575 2.31243141 8.73386628 4.43745912 8.75 6.5625 C8.76160156 7.74585938 8.77320313 8.92921875 8.78515625 10.1484375 C8.6875 13.1875 8.6875 13.1875 7.6875 15.1875 C-7.46163524 16.40213 -7.46163524 16.40213 -11.8125 13.546875 C-13.97344204 10.74180601 -15.36446038 8.72321793 -15.2421875 5.109375 C-12.29934443 -0.97414932 -5.77238297 -0.17768188 0 0 Z " fill="#2A2725" transform="translate(702.3125,524.8125)"/>
<path d="M0 0 C3.16993851 1.66806473 5.37482717 3.74965433 7 7 C7.66958862 11.78277584 7.49542792 15.10822975 5.125 19.375 C2.08733753 22.54397352 -1.61675138 23.38262851 -5.79296875 24.359375 C-8.18188162 24.86057169 -8.18188162 24.86057169 -10 27 C-10.64767793 29.57061311 -10.64767793 29.57061311 -11 32 C-12.65 32 -14.3 32 -16 32 C-16.46127895 28.12525682 -16.16673616 26.28747614 -14.1875 22.875 C-10.96896585 19.32061881 -6.79660332 18.1775334 -2.328125 16.76171875 C-0.0646675 16.21539022 -0.0646675 16.21539022 1 15 C1.07148199 13.64756083 1.08399454 12.29165633 1.0625 10.9375 C1.041875 9.638125 1.02125 8.33875 1 7 C-1.75078884 6.08307039 -3.35948913 5.89113917 -6.1875 5.9375 C-7.445625 5.958125 -8.70375 5.97875 -10 6 C-10.66 7.32 -11.32 8.64 -12 10 C-13.32 10 -14.64 10 -16 10 C-16.4165657 6.33422184 -16.46351526 4.60736483 -14.1875 1.625 C-9.47844363 -0.7756954 -5.18091027 -0.9026769 0 0 Z " fill="#3C3F45" transform="translate(531,348)"/>
<path d="M0 0 C3.58482022 1.36042638 6.89728835 2.95478404 10.25 4.8125 C11.20003906 5.33714844 12.15007812 5.86179687 13.12890625 6.40234375 C14.07636719 6.92957031 15.02382813 7.45679688 16 8 C17.34384766 8.74443359 17.34384766 8.74443359 18.71484375 9.50390625 C20.81146379 10.66648703 22.90651608 11.83178428 25 13 C25 13.66 25 14.32 25 15 C18.44864694 18.08444118 10.33182156 18.32833803 3.4140625 16.20703125 C0.0982691 14.59844003 -2.48457512 12.65221536 -5 10 C-3.66511872 6.40608886 -2.03977277 3.24509304 0 0 Z " fill="#F5F4F3" transform="translate(490,456)"/>
<path d="M0 0 C-5.68750153 7.07912425 -10.30834672 11.10278224 -19 14 C-24.9737432 14.5856611 -29.13331532 13.35984507 -34 10 C-35.91978614 8.09876252 -37.40229695 6.19684169 -39 4 C-36.26538657 2.63269328 -33.82151097 3.02315903 -30.828125 3.11499023 C-21.8911951 3.37258614 -14.41042681 2.52271387 -5.90625 -0.22265625 C-3 -1 -3 -1 0 0 Z " fill="#CF641A" transform="translate(679,451)"/>
<path d="M0 0 C4.45165631 1.39909198 6.96606091 3.47407079 10 7 C11.62535767 10.25071535 12.38750841 13.42713241 13 17 C12.46890625 17.37511719 11.9378125 17.75023437 11.390625 18.13671875 C4.63647759 23.02977809 1.00373764 27.04325399 -1.38671875 35.109375 C-2 37 -2 37 -3 38 C-4.99958364 38.04080783 -7.00045254 38.04254356 -9 38 C-8.61376151 35.21908285 -8.28980664 33.37800866 -6.5625 31.125 C-4.7718206 28.95322785 -4.7718206 28.95322785 -4.0625 25.625 C-3 22 -3 22 -0.9375 19.125 C1.86246001 14.60893547 2.57649938 10.11652141 1.60546875 4.8671875 C1.14273975 3.22266863 0.5810815 1.60651945 0 0 Z " fill="#F2F1F1" transform="translate(509,400)"/>
<path d="M0 0 C2.8100346 1.79363911 4.50940468 3.01880935 6 6 C6.48395638 9.40607272 6.57932394 12.60305509 6 16 C4.6221198 17.76979223 3.13538769 19.00298934 1.40234375 20.41796875 C-1.21540988 23.37114485 -0.98314217 27.20698897 -1 31 C-4.875 30.125 -4.875 30.125 -6 29 C-6.82825234 22.13733776 -6.82825234 22.13733776 -4.66015625 19.16015625 C-3.55730109 18.01578184 -2.44924186 16.87639899 -1.3359375 15.7421875 C0.80344603 12.9522312 0.41073209 10.35431208 0 7 C-2.82883747 5.58558126 -4.87376745 5.68099668 -8 6 C-10.26400012 8.26400012 -10.98258544 9.94775632 -12 13 C-13.32 13 -14.64 13 -16 13 C-16.3125 10.3125 -16.3125 10.3125 -16 7 C-11.39820591 1.52759621 -7.26019935 -1.18880457 0 0 Z " fill="#34383E" transform="translate(494,346)"/>
<path d="M0 0 C9.48421053 -0.55789474 9.48421053 -0.55789474 14 3 C16 5 16 5 16.125 8.125 C16.08375 9.07375 16.0425 10.0225 16 11 C15.443125 11.07476562 14.88625 11.14953125 14.3125 11.2265625 C7.9110613 12.32951309 3.87727459 14.77391466 -1 19 C-2.65 18.01 -4.3 17.02 -6 16 C-5.47599609 14.89591797 -5.47599609 14.89591797 -4.94140625 13.76953125 C-4.48636719 12.79371094 -4.03132812 11.81789063 -3.5625 10.8125 C-3.11003906 9.84957031 -2.65757812 8.88664062 -2.19140625 7.89453125 C-1.09618578 5.23368414 -0.45045204 2.83215245 0 0 Z " fill="#F0F0EF" transform="translate(525,419)"/>
<path d="M0 0 C2.63062159 1.62431985 4.19763778 2.59579265 6 5 C6.70176405 8.05773864 6.52616931 10.94795556 6.3125 14.0625 C6.24204353 15.65737831 6.17550148 17.25243539 6.11328125 18.84765625 C6.06985596 19.54898682 6.02643066 20.25031738 5.98168945 20.97290039 C6.00117623 23.13021667 6.39834618 24.9349109 7 27 C5.68 27 4.36 27 3 27 C0.40458736 24.03381412 -0.19486206 21.58208716 -0.25 17.75 C0 14 0 14 1 13 C1.16666667 10 1.16666667 10 1 7 C-0.11166864 5.66812207 -0.11166864 5.66812207 -2.9375 5.8125 C-6.10892859 5.66721267 -6.10892859 5.66721267 -8 8 C-8.46006346 10.20250992 -8.46006346 10.20250992 -8.625 12.625 C-8.69976562 13.44226563 -8.77453125 14.25953125 -8.8515625 15.1015625 C-8.90054687 15.72804688 -8.94953125 16.35453125 -9 17 C-12.875 16.125 -12.875 16.125 -14 15 C-14.41345068 10.78280304 -14.24797447 8.46938025 -12.25 4.6875 C-8.61014819 0.33989923 -5.69537132 -0.79735199 0 0 Z " fill="#3A4148" transform="translate(463,366)"/>
<path d="M0 0 C5.51809965 -0.19361753 9.77802264 0.18829357 15 2 C16.87643761 3.87643761 16.17984987 6.49805701 16.23046875 8.9921875 C16 11 16 11 14 14 C11.2114711 14.22107787 8.65346819 14.28107535 5.875 14.1875 C5.12089844 14.17396484 4.36679687 14.16042969 3.58984375 14.14648438 C1.72625873 14.11109985 -0.13695978 14.05729167 -2 14 C-1.34 9.38 -0.68 4.76 0 0 Z " fill="#1F2226" transform="translate(734,527)"/>
<path d="M0 0 C1.32 0.66 2.64 1.32 4 2 C4.86091417 11.68050151 4.86091417 11.68050151 1.6875 15.5 C-2.12414399 19.04571534 -4.04910136 20.2584649 -9.1875 20.125 C-10.08855469 20.10695313 -10.98960937 20.08890625 -11.91796875 20.0703125 C-12.60503906 20.04710937 -13.29210937 20.02390625 -14 20 C-14 17.36 -14 14.72 -14 12 C-12.80375 11.505 -11.6075 11.01 -10.375 10.5 C-5.46447862 8.08842722 -2.90084398 4.52707469 0 0 Z " fill="#F5F5F4" transform="translate(543,435)"/>
<path d="M0 0 C0.99 0 1.98 0 3 0 C3.268125 1.0725 3.53625 2.145 3.8125 3.25 C4.70594525 6.8994864 4.70594525 6.8994864 6.625 8.9375 C8.79465087 12.1919763 8.19250179 15.14996423 8 19 C7.34 19 6.68 19 6 19 C5.57682292 16.98177083 5.15364583 14.96354167 4.73046875 12.9453125 C4.07691162 10.62953451 4.07691162 10.62953451 1 9 C0.7525 9.556875 0.505 10.11375 0.25 10.6875 C-2.56541556 15.89601878 -5.4485074 18.80253418 -11 21 C-12.32 21 -13.64 21 -15 21 C-15.33 21.99 -15.66 22.98 -16 24 C-16.33 23.67 -16.66 23.34 -17 23 C-18.51165654 22.60851239 -20.03469632 22.26027543 -21.5625 21.9375 C-22.38878906 21.76089844 -23.21507812 21.58429688 -24.06640625 21.40234375 C-24.70449219 21.26957031 -25.34257813 21.13679688 -26 21 C-26 20.34 -26 19.68 -26 19 C-20.25 18.875 -20.25 18.875 -18 20 C-18 19.01 -18 18.02 -18 17 C-18.66 17 -19.32 17 -20 17 C-20 15.68 -20 14.36 -20 13 C-19.01 13 -18.02 13 -17 13 C-16.566875 12.071875 -16.566875 12.071875 -16.125 11.125 C-15 9 -15 9 -13 7 C-11.68 7 -10.36 7 -9 7 C-9 7.66 -9 8.32 -9 9 C-12.46153846 12 -12.46153846 12 -15 12 C-15.33 14.31 -15.66 16.62 -16 19 C-9.04315029 16.06866721 -4.86267197 13.56654234 -1 7 C-2.98 7 -4.96 7 -7 7 C-6.67 6.34 -6.34 5.68 -6 5 C-4.02 5 -2.04 5 0 5 C0 3.35 0 1.7 0 0 Z " fill="#414344" transform="translate(542,426)"/>
<path d="M0 0 C0.66 0 1.32 0 2 0 C2 0.66 2 1.32 2 2 C7.82748619 4.42811925 13.7757491 4.61727907 20 5 C19.43957711 8.67817783 18.4857904 11.21380426 16.4375 14.3125 C15.98246094 15.00988281 15.52742188 15.70726562 15.05859375 16.42578125 C14.70925781 16.94527344 14.35992187 17.46476562 14 18 C9.28150971 17.58366262 6.03158413 15.55427105 3 12 C0.82795745 7.91526327 0 4.64173314 0 0 Z " fill="#F3F2F1" transform="translate(482,420)"/>
<path d="M0 0 C0 0.66 0 1.32 0 2 C-0.59167969 2.08636719 -1.18335938 2.17273438 -1.79296875 2.26171875 C-7.35631451 3.25095968 -10.3304027 4.44080335 -14 9 C-17.11826392 13.67739588 -16.46500765 18.52162859 -16 24 C-13.94116104 29.959797 -10.31459584 33.7292415 -4.8125 36.75 C-0.37642604 38.48713516 4.28289385 38.72475638 9 39 C9 39.33 9 39.66 9 40 C6.525 40.495 6.525 40.495 4 41 C4 41.33 4 41.66 4 42 C-3.4831808 41.7624387 -8.38915515 40.06715833 -14 35 C-19.46910928 28.09850495 -20.83452075 21.71478093 -20 13 C-18.51140833 7.66438527 -15.65547077 3.847931 -11.015625 0.83203125 C-7.40959941 -0.65650257 -3.82117669 -0.38991599 0 0 Z " fill="#46484C" transform="translate(463,429)"/>
<path d="M0 0 C1.8125 0.1875 1.8125 0.1875 4 1 C7.85782657 6.28665123 8.75309561 11.53413626 8 18 C6.45506884 24.56130401 4.37884085 29.8703865 -1.12890625 33.98046875 C-4.06552142 35.58058683 -6.68969715 35.93634033 -10 36 C-13 35 -13 35 -14.1875 32.9375 C-14.455625 32.298125 -14.72375 31.65875 -15 31 C-15.99 32.485 -15.99 32.485 -17 34 C-17.20625 33.278125 -17.4125 32.55625 -17.625 31.8125 C-19.45248163 28.0744694 -21.70438806 26.50753083 -25 24 C-23.68 23.34 -22.36 22.68 -21 22 C-19.63875 23.423125 -19.63875 23.423125 -18.25 24.875 C-15.99021123 27.14549867 -14.03429084 28.83296506 -11 30 C-11 30.99 -11 31.98 -11 33 C-5.51627266 31.81723528 -2.62532688 30.5316586 1 26 C4.17458654 20.41710643 4.79897253 15.28801754 4 9 C2.69280737 5.63121229 2.69280737 5.63121229 1 3 C0.67 2.01 0.34 1.02 0 0 Z " fill="#3E4044" transform="translate(536,377)"/>
<path d="M0 0 C0.99 0 1.98 0 3 0 C2.98952637 0.62865967 2.97905273 1.25731934 2.96826172 1.9050293 C2.68270452 19.05274615 2.68270452 19.05274615 5 36 C2 35 2 35 0.6484375 32.63671875 C0.22820313 31.66347656 -0.19203125 30.69023437 -0.625 29.6875 C-1.05039062 28.72199219 -1.47578125 27.75648438 -1.9140625 26.76171875 C-4.49062878 20.20908436 -5.34098559 13.07565926 -3.10546875 6.28125 C-2.1447402 4.13573606 -1.13748078 2.05660587 0 0 Z " fill="#F9F4ED" transform="translate(585,378)"/>
<path d="M0 0 C7.20653534 1.3827438 15.23431144 7.49199235 20 13 C20.625 15.75 20.625 15.75 20 18 C17 20 17 20 15.01953125 19.8828125 C12.34859203 18.71524526 11.36906132 17.24283097 9.6875 14.875 C6.45917293 10.50767442 2.94151801 6.72587265 -1 3 C-0.67 2.01 -0.34 1.02 0 0 Z " fill="#E76E18" transform="translate(611,315)"/>
<path d="M0 0 C0 0.99 0 1.98 0 3 C-0.99 3.66 -1.98 4.32 -3 5 C-3.33 5.99 -3.66 6.98 -4 8 C-3.34 8 -2.68 8 -2 8 C-2.103125 8.7425 -2.20625 9.485 -2.3125 10.25 C-2.26554502 13.15939254 -2.26554502 13.15939254 0.0625 15.125 C7.05346576 19.58731857 12.79420779 20.56967817 21 21 C21 21.66 21 22.32 21 23 C13.80738513 23.41319277 5.13130824 23.56214939 -0.64453125 18.58203125 C-1.34642578 17.86080078 -1.34642578 17.86080078 -2.0625 17.125 C-3.031875 16.42375 -4.00125 15.7225 -5 15 C-7.43794071 15.40032606 -9.47784755 16.20420959 -11.7578125 17.1484375 C-14.93716267 18.35592589 -17.64318616 18.3290994 -21 18 C-22.35244937 17.3730208 -23.69076825 16.71283551 -25 16 C-24.19175781 15.89042969 -23.38351562 15.78085937 -22.55078125 15.66796875 C-21.48214844 15.50941406 -20.41351563 15.35085938 -19.3125 15.1875 C-18.25675781 15.03667969 -17.20101563 14.88585937 -16.11328125 14.73046875 C-12.89035664 13.97427439 -10.76736092 12.76897852 -8 11 C-7.34 11 -6.68 11 -6 11 C-6.061875 9.741875 -6.12375 8.48375 -6.1875 7.1875 C-6.1875 3.28571429 -6.1875 3.28571429 -4.6875 1 C-3 0 -3 0 0 0 Z " fill="#2B2F32" transform="translate(488,453)"/>
<path d="M0 0 C3.88093945 1.12900057 4.52844399 1.56369919 6.4375 5 C6.94921875 8.453125 6.94921875 8.453125 7.125 12.25 C7.22361328 14.14492188 7.22361328 14.14492188 7.32421875 16.078125 C7.36160156 17.04234375 7.39898437 18.0065625 7.4375 19 C4.4375 19 4.4375 19 2.76171875 17.328125 C1.18518288 14.55639822 1.12520498 12.91147376 1.25 9.75 C1.27707031 8.85796875 1.30414063 7.9659375 1.33203125 7.046875 C1.36683594 6.37140625 1.40164063 5.6959375 1.4375 5 C-0.53695397 5.26404798 -0.53695397 5.26404798 -2.5625 6 C-3.8670656 8.99615946 -3.8670656 8.99615946 -4.5625 12 C-5.8825 11.67 -7.2025 11.34 -8.5625 11 C-8.27685625 7.28663123 -7.98663305 4.65251239 -5.9375 1.5 C-3.5625 0 -3.5625 0 0 0 Z " fill="#3C4046" transform="translate(451.5625,394)"/>
<path d="M0 0 C1.125 3.75 1.125 3.75 0 6 C-1.97888961 6.72693904 -3.97954558 7.39816251 -6 8 C-6.33 7.01 -6.66 6.02 -7 5 C-7.66 5 -8.32 5 -9 5 C-9 5.99 -9 6.98 -9 8 C-10.423125 8.2165625 -10.423125 8.2165625 -11.875 8.4375 C-14.8934494 8.82935399 -14.8934494 8.82935399 -17 10 C-19 8.625 -19 8.625 -21 7 C-21 6.34 -21 5.68 -21 5 C-21.66 4.67 -22.32 4.34 -23 4 C-21.20150071 2.20150071 -18.49922152 2.57781868 -16.0625 2.375 C-14.98097656 2.27960938 -13.89945312 2.18421875 -12.78515625 2.0859375 C-10 2 -10 2 -8 3 C-7.67 2.01 -7.34 1.02 -7 0 C-4.3333581 -1.33332095 -2.83319697 -0.67102033 0 0 Z " fill="#565758" transform="translate(520,438)"/>
<path d="M0 0 C2 1 2 1 3.1875 4 C4.3271826 8.44020341 4.14587242 12.57091866 3 17 C1.73339467 19.04291182 0.40113616 21.04690112 -1 23 C-1.85295385 25.31852648 -2.42191755 27.59132314 -3 30 C-3.66 30 -4.32 30 -5 30 C-5 28.35 -5 26.7 -5 25 C-6.98 25 -8.96 25 -11 25 C-10.01 24.34 -9.02 23.68 -8 23 C-8 22.34 -8 21.68 -8 21 C-9.98 20.01 -11.96 19.02 -14 18 C-14 17.34 -14 16.68 -14 16 C-9.18569279 15.43361092 -6.79692186 17.17438373 -3 20 C0.38304791 15.48926945 0.34564154 12.44385425 0 7 C-0.32483418 5.66457061 -0.6550855 4.33038449 -1 3 C-0.67 2.01 -0.34 1.02 0 0 Z " fill="#464748" transform="translate(508,399)"/>
<path d="M0 0 C0.99 0.33 1.98 0.66 3 1 C2.70985788 4.48170548 2.27243676 5.74228955 -0.3125 8.1875 C-4.60584568 11.0830122 -7.31294061 12.27856903 -12.5625 12.25 C-13.98755859 12.25773437 -13.98755859 12.25773437 -15.44140625 12.265625 C-18 12 -18 12 -21 10 C-21 8.68 -21 7.36 -21 6 C-20.505 6.165 -20.01 6.33 -19.5 6.5 C-13.53991488 7.69201702 -8.61395035 7.24558014 -3 5 C-3 4.34 -3 3.68 -3 3 C-2.34 3 -1.68 3 -1 3 C-0.67 2.01 -0.34 1.02 0 0 Z " fill="#993C14" transform="translate(678,354)"/>
<path d="M0 0 C0.66 1.32 1.32 2.64 2 4 C3.28252599 6.81627845 3.28252599 6.81627845 6 9 C9.07218635 9.75211201 12.08043177 10.18951705 15.22265625 10.54296875 C18 11 18 11 21 13 C22.09839403 16.07550328 22.34907895 18.09304722 21.1640625 21.171875 C20.17099442 23.15801117 19.13013467 25.08895683 18 27 C19.32 27.33 20.64 27.66 22 28 C20.35 28 18.7 28 17 28 C16.34 26.68 15.68 25.36 15 24 C15.639375 23.0925 16.27875 22.185 16.9375 21.25 C18.66922385 18.52122303 19.37439083 17.02926548 20 14 C19.20335937 14.03480469 18.40671875 14.06960938 17.5859375 14.10546875 C7.06151142 14.37434095 7.06151142 14.37434095 2 11 C2 10.34 2 9.68 2 9 C1.34 9 0.68 9 0 9 C-0.33 10.32 -0.66 11.64 -1 13 C-0.67 8.71 -0.34 4.42 0 0 Z " fill="#4E4E50" transform="translate(482,411)"/>
<path d="M0 0 C0.99 0.33 1.98 0.66 3 1 C2.3125 2.8984375 2.3125 2.8984375 1 5 C-1.3125 5.9765625 -1.3125 5.9765625 -4 6.625 C-7.91971285 7.52828914 -7.91971285 7.52828914 -11 10 C-11.64767793 12.57061311 -11.64767793 12.57061311 -12 15 C-13.65 15 -15.3 15 -17 15 C-17.47721841 10.99136538 -17.12859671 9.21985889 -15.0625 5.6875 C-12.15415271 2.49581801 -9.2636487 2.2216885 -5.0859375 2.0078125 C-3.39063489 2.00146305 -1.6953145 2 0 2 C0 1.34 0 0.68 0 0 Z " fill="#2C3033" transform="translate(532,365)"/>
<path d="M0 0 C7.60344828 0.60344828 7.60344828 0.60344828 10 3 C9.53846154 9.46153846 9.53846154 9.46153846 7 12 C4.5625 12.375 4.5625 12.375 2 12 C0.1875 10.4375 0.1875 10.4375 -1 8 C-1.25 4.3125 -1.25 4.3125 -1 1 C-0.67 0.67 -0.34 0.34 0 0 Z " fill="#EFEEED" transform="translate(468,440)"/>
<path d="M0 0 C3.875 0.875 3.875 0.875 5 2 C5.0605151 5.77084746 5.02017159 9.52857844 4.9609375 13.29882812 C4.95320313 14.09353516 4.94546875 14.88824219 4.9375 15.70703125 C4.92589844 16.4338208 4.91429687 17.16061035 4.90234375 17.90942383 C5.00288 20.0616535 5.40793544 21.93331008 6 24 C4.68 24 3.36 24 2 24 C-0.59541264 21.03381412 -1.19486206 18.58208716 -1.25 14.75 C-1 11 -1 11 0 10 C0.07205511 8.31391034 0.08386068 6.62499341 0.0625 4.9375 C0.05347656 4.01839844 0.04445313 3.09929687 0.03515625 2.15234375 C0.02355469 1.44207031 0.01195312 0.73179687 0 0 Z " fill="#313539" transform="translate(464,369)"/>
<path d="M0 0 C0.99 0.33 1.98 0.66 3 1 C3.26554688 1.61359375 3.53109375 2.2271875 3.8046875 2.859375 C5.55690511 5.99733333 7.91440681 6.74716914 11.125 8.25 C12.22070312 8.77078125 13.31640625 9.2915625 14.4453125 9.828125 C15.28835938 10.21484375 16.13140625 10.6015625 17 11 C17 12.32 17 13.64 17 15 C13.23781511 14.21061299 10.32055006 12.62296781 7 10.7421875 C4.54205046 9.83005779 3.40912493 10.02923447 1 11 C-0.03145371 12.30915279 -1.03542166 13.64082143 -2 15 C-2.66 15 -3.32 15 -4 15 C-3.36809816 10.32392638 -3.36809816 10.32392638 -1.4375 8.625 C0.8713299 6.01501838 0.18853244 3.33073979 0 0 Z " fill="#9A3C11" transform="translate(641,418)"/>
<path d="M0 0 C2.15665209 0.46213973 3.9099254 0.94961929 5.84375 2.03125 C8.33241088 3.14934402 10.0384976 3.20475007 12.75 3.125 C13.94882812 3.09792969 13.94882812 3.09792969 15.171875 3.0703125 C16.07679688 3.03550781 16.07679688 3.03550781 17 3 C17.33 2.01 17.66 1.02 18 0 C19.32 0.33 20.64 0.66 22 1 C21.70926678 3.81042113 21.18436938 4.83347282 19.0625 6.75 C14.21262332 8.7295415 8.98896859 9.1496033 4.01953125 7.23828125 C2.375 6.25 2.375 6.25 0 4 C0 2.68 0 1.36 0 0 Z " fill="#903713" transform="translate(607,363)"/>
<path d="M0 0 C0.99 0.66 1.98 1.32 3 2 C2.34 2 1.68 2 1 2 C1 2.66 1 3.32 1 4 C-0.19625 4.2475 -1.3925 4.495 -2.625 4.75 C-6.69440649 5.76193056 -9.67029781 7.40120804 -13 10 C-13.33 10.66 -13.66 11.32 -14 12 C-15.32 12 -16.64 12 -18 12 C-18.33 11.34 -18.66 10.68 -19 10 C-14.45281971 2.30477181 -9.19281458 -1.50587058 0 0 Z " fill="#56585A" transform="translate(499,393)"/>
<path d="M0 0 C1.63001953 0.01353516 1.63001953 0.01353516 3.29296875 0.02734375 C4.12441406 0.03894531 4.95585938 0.05054688 5.8125 0.0625 C6.1425 1.0525 6.4725 2.0425 6.8125 3.0625 C5.84570312 3.16046875 4.87890625 3.2584375 3.8828125 3.359375 C-3.26699054 4.1805405 -9.52657326 5.13478742 -16.13671875 8.16015625 C-18.14090833 9.04199967 -20.05269067 9.59505868 -22.1875 10.0625 C-22.0546875 8.23046875 -22.0546875 8.23046875 -21.1875 6.0625 C-18.5703125 4.61328125 -18.5703125 4.61328125 -15.3125 3.375 C-13.70761719 2.75044922 -13.70761719 2.75044922 -12.0703125 2.11328125 C-7.75023082 0.53861733 -4.6000557 -0.04946296 0 0 Z " fill="#A74312" transform="translate(723.1875,394.9375)"/>
<path d="M0 0 C0.76828125 -0.00386719 1.5365625 -0.00773437 2.328125 -0.01171875 C3.07320312 -0.01042969 3.81828125 -0.00914062 4.5859375 -0.0078125 C5.60373291 -0.00612061 5.60373291 -0.00612061 6.64208984 -0.00439453 C8.73735417 0.13233166 10.60729148 0.55729045 12.625 1.125 C12.625 2.115 12.625 3.105 12.625 4.125 C5.035 4.455 -2.555 4.785 -10.375 5.125 C-10.375 3.805 -10.375 2.485 -10.375 1.125 C-7.1242389 -0.50038055 -3.56764307 -0.01777895 0 0 Z " fill="#9C4512" transform="translate(588.375,414.875)"/>
<path d="M0 0 C-1.31884633 4.18466376 -2.74748747 5.96761519 -6.4375 8.3125 C-7.21996094 8.82425781 -8.00242187 9.33601563 -8.80859375 9.86328125 C-11 11 -11 11 -14 11 C-13.83040261 6.59046793 -13.67398613 4.62584426 -10.375 1.5625 C-6.61151901 -0.17985231 -4.09839745 -0.3278718 0 0 Z " fill="#E8E8E8" transform="translate(540,434)"/>
<path d="M0 0 C1.32 0 2.64 0 4 0 C4 0.66 4 1.32 4 2 C0.53846154 5 0.53846154 5 -2 5 C-2.33 7.31 -2.66 9.62 -3 12 C-1.68 12 -0.36 12 1 12 C1 12.66 1 13.32 1 14 C0.01 14 -0.98 14 -2 14 C-2.33 14.99 -2.66 15.98 -3 17 C-3.33 16.67 -3.66 16.34 -4 16 C-5.51165654 15.60851239 -7.03469632 15.26027543 -8.5625 14.9375 C-9.38878906 14.76089844 -10.21507812 14.58429688 -11.06640625 14.40234375 C-11.70449219 14.26957031 -12.34257813 14.13679688 -13 14 C-13 13.34 -13 12.68 -13 12 C-7.25 11.875 -7.25 11.875 -5 13 C-5 12.01 -5 11.02 -5 10 C-5.66 10 -6.32 10 -7 10 C-7 8.68 -7 7.36 -7 6 C-6.01 6 -5.02 6 -4 6 C-3.566875 5.071875 -3.566875 5.071875 -3.125 4.125 C-2 2 -2 2 0 0 Z " fill="#303131" transform="translate(529,433)"/>
<path d="M0 0 C9.64062772 -0.46837058 17.09349655 -0.14772718 26 4 C26 4.99 26 5.98 26 7 C25.28457031 6.79503906 24.56914063 6.59007812 23.83203125 6.37890625 C16.20939738 4.31793539 8.88033008 3.36859608 1 3 C0.67 2.01 0.34 1.02 0 0 Z " fill="#9E4010" transform="translate(701,410)"/>
<path d="M0 0 C-0.56711604 3.28927304 -1.27800905 5.01322723 -4 7 C-7.60025518 7.33319669 -11.13550393 7.31207655 -14.75 7.30078125 C-15.8225 7.53152344 -16.895 7.76226562 -18 8 C-20.0154578 10.91889181 -20.0154578 10.91889181 -21 14 C-21.66 14 -22.32 14 -23 14 C-22.45276317 10.62537285 -21.9451 8.91765 -20 6 C-19.34 6 -18.68 6 -18 6 C-18.33 5.01 -18.66 4.02 -19 3 C-18.34 2.67 -17.68 2.34 -17 2 C-17 2.99 -17 3.98 -17 5 C-15.96939453 4.7834375 -15.96939453 4.7834375 -14.91796875 4.5625 C-14.01691406 4.376875 -13.11585938 4.19125 -12.1875 4 C-11.29417969 3.814375 -10.40085937 3.62875 -9.48046875 3.4375 C-7 3 -7 3 -4 3 C-4 2.34 -4 1.68 -4 1 C-2 0 -2 0 0 0 Z " fill="#2D2F2F" transform="translate(516,434)"/>
<path d="M0 0 C1.41750563 0.11509661 2.83401169 0.24253658 4.25 0.375 C5.03890625 0.44460938 5.8278125 0.51421875 6.640625 0.5859375 C9.085877 1.01507113 10.84836903 1.78600638 13 3 C13 3.66 13 4.32 13 5 C10.525 4.505 10.525 4.505 8 4 C7.67 4.99 7.34 5.98 7 7 C6.34 6.34 5.68 5.68 5 5 C2.9280863 4.68110168 2.9280863 4.68110168 0.625 4.75 C-0.14585937 4.74484375 -0.91671875 4.7396875 -1.7109375 4.734375 C-4.21212486 5.02461517 -5.78374343 5.85082992 -8 7 C-8.99 7 -9.98 7 -11 7 C-10 4 -10 4 -8.3125 2.8125 C-5.45030907 1.80686535 -3.01172092 1.86310359 0 2 C0 1.34 0 0.68 0 0 Z " fill="#373A3D" transform="translate(500,395)"/>
<path d="M0 0 C0.33 0 0.66 0 1 0 C1 1.98 1 3.96 1 6 C1.66 6 2.32 6 3 6 C1.90508456 11.10960537 -0.16071184 13.63493739 -4.11328125 16.80859375 C-6.67450811 18.42593162 -8.99980926 18.85364923 -12 19 C-12 18.67 -12 18.34 -12 18 C-14.31 17.67 -16.62 17.34 -19 17 C-19 14.36 -19 11.72 -19 9 C-18.67 9 -18.34 9 -18 9 C-18 11.31 -18 13.62 -18 16 C-10.87265481 15.89562065 -10.87265481 15.89562065 -4.5 13.0625 C-1.15350883 8.96304832 -0.58207819 5.16845285 0 0 Z " fill="#5C5C5E" transform="translate(547,439)"/>
<path d="M0 0 C-0.33 0.99 -0.66 1.98 -1 3 C-3.29296875 4.0625 -3.29296875 4.0625 -6.1875 5 C-9.45862908 6.10310449 -12.40256697 7.20128348 -15.5 8.75 C-18 10 -18 10 -21 10 C-19.62714287 6.61739327 -18.44293941 5.3649426 -15.125 3.875 C-14.44695313 3.56304687 -13.76890625 3.25109375 -13.0703125 2.9296875 C-12.38710938 2.62289063 -11.70390625 2.31609375 -11 2 C-9.99839844 1.45085937 -9.99839844 1.45085937 -8.9765625 0.890625 C-6.00709278 -0.44739693 -3.20659276 -0.12333049 0 0 Z " fill="#9D410E" transform="translate(603,425)"/>
<path d="M0 0 C-0.47424494 4.97957189 -1.77646974 8.14967219 -5 12 C-7.75 12.875 -7.75 12.875 -10 13 C-9.77503257 7.37581437 -8.47912718 4.8279038 -4.5703125 1.06640625 C-3 0 -3 0 0 0 Z " fill="#E2E2E2" transform="translate(522,421)"/>
<path d="M0 0 C-1.19432131 2.82294128 -2.5118514 4.58675649 -4.5625 6.9375 C-6.90630127 9.88227596 -7.6765774 11.33454384 -8 15 C-7.34 15.33 -6.68 15.66 -6 16 C-6.66 16 -7.32 16 -8 16 C-8 16.66 -8 17.32 -8 18 C-8.99 18.33 -9.98 18.66 -11 19 C-11.66 18.34 -12.32 17.68 -13 17 C-11.41524451 10.47986313 -7.8750952 0 0 0 Z " fill="#3E3F40" transform="translate(520,419)"/>
<path d="M0 0 C3 1 3 1 4.2109375 3.0390625 C4.59507812 3.89242188 4.97921875 4.74578125 5.375 5.625 C6.96186499 8.9916619 8.58871313 12.0139519 10.8125 15 C13 18 13 18 13 20 C13.66 20.33 14.32 20.66 15 21 C13.35 21.33 11.7 21.66 10 22 C8.32326863 18.90116855 6.6603866 15.79511545 5 12.6875 C4.52304687 11.80642578 4.04609375 10.92535156 3.5546875 10.01757812 C3.10351562 9.17001953 2.65234375 8.32246094 2.1875 7.44921875 C1.76855469 6.66893311 1.34960938 5.88864746 0.91796875 5.0847168 C0 3 0 3 0 0 Z " fill="#1D8B8E" transform="translate(684,473)"/>
<path d="M0 0 C4.25177923 0.47241991 6.29969203 2.84964071 9 6 C9 6.99 9 7.98 9 9 C8.34 9 7.68 9 7 9 C7 10.65 7 12.3 7 14 C5.02 14.33 3.04 14.66 1 15 C2.65 15.33 4.3 15.66 6 16 C5.67 16.66 5.34 17.32 5 18 C0.545 17.01 0.545 17.01 -4 16 C-3.67 15.34 -3.34 14.68 -3 14 C-0.93359375 13.5859375 -0.93359375 13.5859375 1.5625 13.375 C2.80193359 13.26285156 2.80193359 13.26285156 4.06640625 13.1484375 C5.02353516 13.07496094 5.02353516 13.07496094 6 13 C4.85485202 7.58657319 3.65987191 5.0657052 -1 2 C-0.67 1.34 -0.34 0.68 0 0 Z " fill="#444649" transform="translate(535,417)"/>
<path d="M0 0 C1.8125 0.1875 1.8125 0.1875 4 1 C8.0727413 6.581164 8.21242708 11.30854705 8 18 C7.67 18.99 7.34 19.98 7 21 C6.34 21 5.68 21 5 21 C4.96261719 20.20335937 4.92523437 19.40671875 4.88671875 18.5859375 C4.52156702 12.70055085 4.15735727 8.13070557 1 3 C0.67 2.01 0.34 1.02 0 0 Z " fill="#3B3D40" transform="translate(536,377)"/>
<path d="M0 0 C0.66 0.66 1.32 1.32 2 2 C1.86184013 6.28295612 1.70990236 8.90784252 -0.625 12.5 C-3.95549387 14.60346982 -6.14117758 14.56128326 -10 14 C-11.9375 12 -11.9375 12 -13 10 C-12.34 10 -11.68 10 -11 10 C-10.67 9.34 -10.34 8.68 -10 8 C-9.67 8.99 -9.34 9.98 -9 11 C-3.73812487 9.6279443 -3.73812487 9.6279443 0 6 C0.25048636 2.87450983 0.25048636 2.87450983 0 0 Z " fill="#515253" transform="translate(479,441)"/>
<path d="M0 0 C0 0.66 0 1.32 0 2 C-0.59167969 2.08636719 -1.18335938 2.17273438 -1.79296875 2.26171875 C-7.38704926 3.25642475 -10.29629639 4.44973557 -14 9 C-15.1446875 10.3921875 -15.1446875 10.3921875 -16.3125 11.8125 C-16.869375 12.534375 -17.42625 13.25625 -18 14 C-18.34145336 10.32937634 -18.30049843 8.47857157 -16.3125 5.3125 C-11.0557809 0.0557809 -7.17700841 -0.42217697 0 0 Z " fill="#404447" transform="translate(463,429)"/>
<path d="M0 0 C-0.33 1.32 -0.66 2.64 -1 4 C0.65 4 2.3 4 4 4 C4 4.33 4 4.66 4 5 C2.88625 5.0825 1.7725 5.165 0.625 5.25 C-3.05753944 5.57873787 -3.05753944 5.57873787 -4.4375 8.0625 C-4.7159375 9.0215625 -4.7159375 9.0215625 -5 10 C-6.32 10 -7.64 10 -9 10 C-9.3125 7.25 -9.3125 7.25 -9 4 C-5.82190563 0.64534483 -4.70465908 0 0 0 Z " fill="#484B4F" transform="translate(524,348)"/>
<path d="M0 0 C8.415 1.98 8.415 1.98 17 4 C17 5.32 17 6.64 17 8 C10.49200879 7.00481422 5.5332147 5.60861828 0 2 C0 1.34 0 0.68 0 0 Z " fill="#E16A17" transform="translate(644,546)"/>
<path d="M0 0 C2.97 0.495 2.97 0.495 6 1 C5.67 1.66 5.34 2.32 5 3 C4.77532169 4.53668865 4.59203195 6.07968054 4.4375 7.625 C4.35371094 8.44226563 4.26992188 9.25953125 4.18359375 10.1015625 C4.12300781 10.72804688 4.06242187 11.35453125 4 12 C0.125 11.125 0.125 11.125 -1 10 C-1.23880597 2.47761194 -1.23880597 2.47761194 0 0 Z " fill="#5C5D60" transform="translate(489,365)"/>
<path d="M0 0 C1.32 1.65 2.64 3.3 4 5 C3.01 5.33 2.02 5.66 1 6 C1 19.2 1 32.4 1 46 C0.67 46 0.34 46 0 46 C0 30.82 0 15.64 0 0 Z " fill="#92A4DF" transform="translate(563,427)"/>
<path d="M0 0 C0.33 4.62 0.66 9.24 1 14 C0.01 14 -0.98 14 -2 14 C-4.20914 10.68629 -4.22481553 9.6553979 -4.125 5.8125 C-4.10695313 4.91144531 -4.08890625 4.01039063 -4.0703125 3.08203125 C-4.04710937 2.39496094 -4.02390625 1.70789063 -4 1 C-2 0 -2 0 0 0 Z " fill="#3C4145" transform="translate(458,399)"/>
<path d="M0 0 C0.99 0 1.98 0 3 0 C1.47987167 3.45483712 -0.62614635 6.31495464 -2.87890625 9.31640625 C-4.18551179 11.11886765 -4.18551179 11.11886765 -5 14 C-2.69 14 -0.38 14 2 14 C2 14.33 2 14.66 2 15 C-0.64 15 -3.28 15 -6 15 C-6.875 12.5 -6.875 12.5 -7 9 C-5.09030752 5.68221148 -2.70778054 2.70778054 0 0 Z " fill="#525353" transform="translate(473,423)"/>
<path d="M0 0 C3.39608504 1.45546502 5.40860299 3.40860299 8 6 C8.721875 6.309375 9.44375 6.61875 10.1875 6.9375 C12 8 12 8 12.75 10.625 C12.87375 11.800625 12.87375 11.800625 13 13 C12.01 13 11.02 13 10 13 C9.34 11.68 8.68 10.36 8 9 C7.01 10.485 7.01 10.485 6 12 C5.690625 10.9171875 5.690625 10.9171875 5.375 9.8125 C3.54751837 6.0744694 1.29561194 4.50753083 -2 2 C-1.34 1.34 -0.68 0.68 0 0 Z " fill="#4E4F51" transform="translate(513,399)"/>
<path d="M0 0 C1.125 3.75 1.125 3.75 0 6 C-1.97888961 6.72693904 -3.97954558 7.39816251 -6 8 C-6.33 5.36 -6.66 2.72 -7 0 C-4.3333581 -1.33332095 -2.83319697 -0.67102033 0 0 Z " fill="#E3E3E1" transform="translate(520,438)"/>
<path d="M0 0 C2.24587654 1.08134796 4.33545396 2.21503459 6.4375 3.5625 C9.02061794 5.01156616 11.08759012 5.58394145 14 6 C14 6.66 14 7.32 14 8 C12 9.625 12 9.625 10 11 C10 10.34 10 9.68 10 9 C8.63875 8.62875 8.63875 8.62875 7.25 8.25 C3.85924003 6.94586155 2.23078312 5.83137858 0 3 C0 2.01 0 1.02 0 0 Z " fill="#464849" transform="translate(484,432)"/>
<path d="M0 0 C6.75 4.5 6.75 4.5 8 7 C7.01 7 6.02 7 5 7 C5 8.32 5 9.64 5 11 C5.66 11 6.32 11 7 11 C7 11.99 7 12.98 7 14 C4.36 13.67 1.72 13.34 -1 13 C0.32 12.67 1.64 12.34 3 12 C3 10.35 3 8.7 3 7 C2.360625 6.7525 1.72125 6.505 1.0625 6.25 C-1 5 -1 5 -1.75 2.875 C-1.8325 2.25625 -1.915 1.6375 -2 1 C-1.34 0.67 -0.68 0.34 0 0 Z " fill="#535454" transform="translate(517,432)"/>
<path d="M0 0 C0.33 0 0.66 0 1 0 C1.03738281 0.81984375 1.07476563 1.6396875 1.11328125 2.484375 C1.17902344 3.56203125 1.24476563 4.6396875 1.3125 5.75 C1.37050781 6.81734375 1.42851563 7.8846875 1.48828125 8.984375 C2.04172956 12.24591772 2.74848787 13.62548365 5 16 C5.99 16.66 6.98 17.32 8 18 C7.34 18 6.68 18 6 18 C5.67 18.99 5.34 19.98 5 21 C0.11949684 15.11725065 -1.66053214 10.86615583 -1.30859375 3.1875 C-1 1 -1 1 0 0 Z " fill="#D3BFAC" transform="translate(659,381)"/>
<path d="M0 0 C0.33 0 0.66 0 1 0 C1.75 2.6875 1.75 2.6875 2 6 C0.24646338 8.96752351 -1.27719767 10.57836531 -4.25 12.3125 C-7.93567468 13.23391867 -11.20394503 13.12867983 -15 13 C-14.67 12.34 -14.34 11.68 -14 11 C-12.9275 10.896875 -11.855 10.79375 -10.75 10.6875 C-6.19954924 9.85325069 -4.84453044 8.57598112 -2 5 C-0.680982 2.33466965 -0.680982 2.33466965 0 0 Z " fill="#DB6419" transform="translate(596,364)"/>
<path d="M0 0 C1.47968324 0.14049518 2.95874516 0.28754826 4.4375 0.4375 C5.67306641 0.55931641 5.67306641 0.55931641 6.93359375 0.68359375 C9 1 9 1 10 2 C10.04080783 3.99958364 10.04254356 6.00045254 10 8 C6.01328937 6.63312778 3.11505367 4.84804907 0 2 C0 1.34 0 0.68 0 0 Z " fill="#D6D6D6" transform="translate(516,447)"/>
<path d="M0 0 C0.66 0.99 1.32 1.98 2 3 C0.02 5.31 -1.96 7.62 -4 10 C-4.33 9.34 -4.66 8.68 -5 8 C-5.99 8 -6.98 8 -8 8 C-8 9.65 -8 11.3 -8 13 C-8.33 13 -8.66 13 -9 13 C-9 10.36 -9 7.72 -9 5 C-7.68 4.34 -6.36 3.68 -5 3 C-5 3.66 -5 4.32 -5 5 C-4.34 5 -3.68 5 -3 5 C-2.690625 4.360625 -2.38125 3.72125 -2.0625 3.0625 C-1 1 -1 1 0 0 Z " fill="#4A4C4D" transform="translate(488,400)"/>
<path d="M0 0 C0.66 0.66 1.32 1.32 2 2 C0.7934375 3.175625 0.7934375 3.175625 -0.4375 4.375 C-3.41414467 7.42424576 -3.92693464 8.0501503 -4.25 12.25 C-3.98131072 16.28033925 -3.01063787 18.54170286 -1 22 C-0.67 22.66 -0.34 23.32 0 24 C-0.99 24.33 -1.98 24.66 -3 25 C-6.81471835 19.48535412 -6.82093375 14.52333381 -6 8 C-4.65112978 4.68798533 -2.51929921 2.51929921 0 0 Z " fill="#D5C0AA" transform="translate(604,381)"/>
<path d="M0 0 C0.33 0.66 0.66 1.32 1 2 C1.66 2.33 2.32 2.66 3 3 C-2.43038582 5.75829121 -6.75951419 7.7341748 -13 7 C-14.35153191 6.37104554 -15.6895763 5.71064192 -17 5 C-16.19175781 4.89042969 -15.38351562 4.78085937 -14.55078125 4.66796875 C-13.48214844 4.50941406 -12.41351563 4.35085938 -11.3125 4.1875 C-10.25675781 4.03667969 -9.20101563 3.88585937 -8.11328125 3.73046875 C-4.89806247 2.97608241 -2.71899677 1.84125013 0 0 Z " fill="#393E43" transform="translate(480,464)"/>
<path d="M0 0 C0.33 0.99 0.66 1.98 1 3 C1.99 3.33 2.98 3.66 4 4 C3.34 5.98 2.68 7.96 2 10 C0.35 10 -1.3 10 -3 10 C-3.36923077 4.58461538 -3.36923077 4.58461538 -1.5 1.625 C-1.005 1.08875 -0.51 0.5525 0 0 Z " fill="#535456" transform="translate(518,370)"/>
<path d="M0 0 C0.66 0 1.32 0 2 0 C2 2.31 2 4.62 2 7 C0.21142578 7.09087891 0.21142578 7.09087891 -1.61328125 7.18359375 C-3.17969925 7.26801149 -4.74610488 7.35265887 -6.3125 7.4375 C-7.09818359 7.47681641 -7.88386719 7.51613281 -8.69335938 7.55664062 C-9.8293457 7.61948242 -9.8293457 7.61948242 -10.98828125 7.68359375 C-11.68477783 7.72025146 -12.38127441 7.75690918 -13.09887695 7.79467773 C-15.2216572 7.95581153 -15.2216572 7.95581153 -18 9 C-17.67 8.01 -17.34 7.02 -17 6 C-16.02417969 5.98582031 -15.04835938 5.97164062 -14.04296875 5.95703125 C-12.77066406 5.90933594 -11.49835937 5.86164062 -10.1875 5.8125 C-8.92292969 5.77769531 -7.65835938 5.74289062 -6.35546875 5.70703125 C-2.82103116 5.35711289 -2.82103116 5.35711289 -1.17578125 2.44921875 C-0.78777344 1.64097656 -0.39976562 0.83273437 0 0 Z " fill="#229491" transform="translate(708,518)"/>
<path d="M0 0 C0.33 0.99 0.66 1.98 1 3 C1.61488281 2.97679687 2.22976563 2.95359375 2.86328125 2.9296875 C3.67152344 2.91164063 4.47976563 2.89359375 5.3125 2.875 C6.11300781 2.85179687 6.91351563 2.82859375 7.73828125 2.8046875 C10 3 10 3 13 5 C13.6875 8.625 13.6875 8.625 14 12 C13.01 12.495 13.01 12.495 12 13 C11.855625 12.05125 11.71125 11.1025 11.5625 10.125 C10.37038249 6.87141432 10.37038249 6.87141432 7.86328125 6.15625 C5.57773573 5.66828424 3.3201228 5.27688708 1 5 C0.67 3.35 0.34 1.7 0 0 Z " fill="#393B3C" transform="translate(466,435)"/>
<path d="M0 0 C0.66 0.99 1.32 1.98 2 3 C-1.15557744 7.67025461 -3.8641579 9.12344231 -9 11 C-9.33 10.01 -9.66 9.02 -10 8 C-9.16855469 7.51080078 -9.16855469 7.51080078 -8.3203125 7.01171875 C-7.23363281 6.35623047 -7.23363281 6.35623047 -6.125 5.6875 C-5.40570312 5.25824219 -4.68640625 4.82898438 -3.9453125 4.38671875 C-1.73153667 2.98247625 -1.73153667 2.98247625 0 0 Z " fill="#4E5050" transform="translate(539,436)"/>
<path d="M0 0 C0.33 0.66 0.66 1.32 1 2 C1.62648438 1.96519531 2.25296875 1.93039062 2.8984375 1.89453125 C3.71570313 1.86746094 4.53296875 1.84039062 5.375 1.8125 C6.18710937 1.77769531 6.99921875 1.74289062 7.8359375 1.70703125 C8.55007813 1.80371094 9.26421875 1.90039062 10 2 C10.99 3.485 10.99 3.485 12 5 C8.37 5 4.74 5 1 5 C1 6.65 1 8.3 1 10 C0.67 10 0.34 10 0 10 C0 6.7 0 3.4 0 0 Z " fill="#464648" transform="translate(524,414)"/>
<path d="M0 0 C4 1 4 1 5 2 C5.14115161 4.67058851 5.04247107 7.32432238 5 10 C3.68 9.67 2.36 9.34 1 9 C0.67 6.03 0.34 3.06 0 0 Z " fill="#2E3339" transform="translate(464,369)"/>
<path d="M0 0 C1.8871875 0.0309375 1.8871875 0.0309375 3.8125 0.0625 C-1.63422818 3.69365212 -5.53457492 4.30620096 -12 3.6875 C-13.03930664 3.60242188 -13.03930664 3.60242188 -14.09960938 3.515625 C-15.79648446 3.37519396 -17.49215248 3.22030593 -19.1875 3.0625 C-19.1875 2.7325 -19.1875 2.4025 -19.1875 2.0625 C-18.35605469 2.00191406 -17.52460938 1.94132812 -16.66796875 1.87890625 C-15.03794922 1.75322266 -15.03794922 1.75322266 -13.375 1.625 C-12.29605469 1.54378906 -11.21710938 1.46257812 -10.10546875 1.37890625 C-6.560885 0.99455379 -3.59866306 -0.05899448 0 0 Z " fill="#4E5054" transform="translate(517.1875,470.9375)"/>
<path d="M0 0 C0.66 0 1.32 0 2 0 C3.4606285 2.64738916 4 3.89448334 4 7 C2.54054712 6.91291331 1.08234132 6.80473093 -0.375 6.6875 C-1.18710937 6.62949219 -1.99921875 6.57148438 -2.8359375 6.51171875 C-5 6 -5 6 -7 3 C-4.69 3 -2.38 3 0 3 C0 2.01 0 1.02 0 0 Z " fill="#383A3A" transform="translate(511,443)"/>
<path d="M0 0 C7.21712538 -0.48929664 7.21712538 -0.48929664 11 1.875 C13 4 13 4 13 6 C12.01 6 11.02 6 10 6 C10.33 6.99 10.66 7.98 11 9 C10.01 10.485 10.01 10.485 9 12 C8.87625 11.21625 8.7525 10.4325 8.625 9.625 C8.20882007 6.85942178 8.20882007 6.85942178 6 5 C6.99 4.67 7.98 4.34 9 4 C6.03 3.01 3.06 2.02 0 1 C0 0.67 0 0.34 0 0 Z " fill="#43484E" transform="translate(486,346)"/>
<path d="M0 0 C0.99 0 1.98 0 3 0 C4.26332183 4.21107278 4.00441956 6.5456709 2.0625 10.375 C1.39025121 11.59188424 0.70765749 12.8033603 0 14 C1.32 14.33 2.64 14.66 4 15 C2.35 15 0.7 15 -1 15 C-1.66 13.68 -2.32 12.36 -3 11 C-2.360625 10.0925 -1.72125 9.185 -1.0625 8.25 C0.61428953 5.60778619 1.53689998 4.0101501 2 1 C1.34 0.67 0.68 0.34 0 0 Z " fill="#585959" transform="translate(500,424)"/>
<path d="M0 0 C1.0528418 0.14985352 1.0528418 0.14985352 2.12695312 0.30273438 C3.85636527 0.54979325 5.5845627 0.80532852 7.3125 1.0625 C7.3125 1.3925 7.3125 1.7225 7.3125 2.0625 C5.6625 2.3925 4.0125 2.7225 2.3125 3.0625 C2.3125 3.3925 2.3125 3.7225 2.3125 4.0625 C-7.28203303 3.46796697 -7.28203303 3.46796697 -10.6875 0.0625 C-6.90794143 -1.19735286 -3.84326548 -0.57774579 0 0 Z " fill="#5F6267" transform="translate(464.6875,466.9375)"/>
<path d="M0 0 C1.67542976 0.28604898 3.34385343 0.61781233 5 1 C5 2.65 5 4.3 5 6 C3.02 6 1.04 6 -1 6 C-1.042721 4.33388095 -1.04063832 2.66617115 -1 1 C-0.67 0.67 -0.34 0.34 0 0 Z " fill="#404345" transform="translate(513,385)"/>
<path d="M0 0 C0.66 0.33 1.32 0.66 2 1 C-2.29 5.29 -6.58 9.58 -11 14 C-11.66 13.67 -12.32 13.34 -13 13 C-4.738041 3.40546697 -4.738041 3.40546697 0 0 Z " fill="#F99C46" transform="translate(691,302)"/>
<path d="M0 0 C0.33 1.65 0.66 3.3 1 5 C-4.53846154 5.36923077 -4.53846154 5.36923077 -6.875 3.5 C-7.24625 3.005 -7.6175 2.51 -8 2 C-4.91190305 0.23537317 -3.76687864 0 0 0 Z " fill="#E3E2E0" transform="translate(509,440)"/>
<path d="M0 0 C2 1 2 1 3.125 4.1875 C3.91680237 7.63749602 4.1714979 10.484293 4 14 C3.34 14 2.68 14 2 14 C1.46877637 12.23225581 0.95035927 10.46065917 0.4375 8.6875 C0.14746094 7.70136719 -0.14257812 6.71523438 -0.44140625 5.69921875 C-1 3 -1 3 0 0 Z " fill="#4D4E51" transform="translate(508,399)"/>
<path d="M0 0 C0.99 0 1.98 0 3 0 C2.34 4.95 1.68 9.9 1 15 C0.67 15 0.34 15 0 15 C-1.33257403 4.44191344 -1.33257403 4.44191344 0 0 Z " fill="#262729" transform="translate(480,408)"/>
<path d="M0 0 C1.65 0.33 3.3 0.66 5 1 C4.67 2.65 4.34 4.3 4 6 C2.35 5.67 0.7 5.34 -1 5 C-0.67 3.35 -0.34 1.7 0 0 Z " fill="#47484A" transform="translate(472,395)"/>
<path d="M0 0 C1.65 0.33 3.3 0.66 5 1 C4.67 2.65 4.34 4.3 4 6 C2.35 5.67 0.7 5.34 -1 5 C-0.67 3.35 -0.34 1.7 0 0 Z " fill="#36393C" transform="translate(491,381)"/>
<path d="M0 0 C0 1.32 0 2.64 0 4 C-4.455 4.495 -4.455 4.495 -9 5 C-8.67 3.68 -8.34 2.36 -8 1 C-5.29120665 -0.35439668 -2.99066732 -0.06501451 0 0 Z " fill="#393E45" transform="translate(463,366)"/>
<path d="M0 0 C3.65952031 2.43968021 3.65255774 3.95767321 5 8 C5.99 8.66 6.98 9.32 8 10 C8 10.66 8 11.32 8 12 C4.98673462 11.67715014 3.96538462 10.96634616 1.75 8.8125 C-0.27011863 5.56588078 -0.34907695 3.75257718 0 0 Z " fill="#4B5053" transform="translate(454,447)"/>
<path d="M0 0 C3 2 3 2 4 5 C4.068991 7.06145107 4.08467727 9.12501401 4.0625 11.1875 C4.05347656 12.27417969 4.04445313 13.36085938 4.03515625 14.48046875 C4.02355469 15.31191406 4.01195312 16.14335937 4 17 C2.01506572 13.35961445 1.5424404 10.10704876 1 6 C0.67 5.67 0.34 5.34 0 5 C-0.04063832 3.33382885 -0.042721 1.66611905 0 0 Z " fill="#29292C" transform="translate(520,407)"/>
<path d="M0 0 C1.125 1.6875 1.125 1.6875 2 4 C1.06552903 7.48302817 -0.28005005 9.65095231 -3 12 C-3 11.34 -3 10.68 -3 10 C-3.66 9.67 -4.32 9.34 -5 9 C-4.360625 8.071875 -3.72125 7.14375 -3.0625 6.1875 C-0.91377907 3.15780057 -0.91377907 3.15780057 0 0 Z " fill="#505255" transform="translate(525,458)"/>
<path d="M0 0 C0.66 0.33 1.32 0.66 2 1 C1.34 1.66 0.68 2.32 0 3 C0 3.99 0 4.98 0 6 C-0.928125 6.12375 -1.85625 6.2475 -2.8125 6.375 C-6.13925235 6.81533082 -6.13925235 6.81533082 -9 9 C-7.27592413 4.61144323 -4.17026127 2.08513063 0 0 Z " fill="#E5DFDA" transform="translate(670,370)"/>
<path d="M0 0 C-0.56371414 3.26954202 -1.49962266 4.82575883 -4 7 C-6.475 6.01 -6.475 6.01 -9 5 C-9 4.34 -9 3.68 -9 3 C-7.35 3 -5.7 3 -4 3 C-4 2.34 -4 1.68 -4 1 C-2 0 -2 0 0 0 Z " fill="#222324" transform="translate(516,434)"/>
<path d="M0 0 C0.33 0 0.66 0 1 0 C1 1.65 1 3.3 1 5 C-0.98 5.33 -2.96 5.66 -5 6 C-3.35 6.33 -1.7 6.66 0 7 C-0.33 7.66 -0.66 8.32 -1 9 C-5.455 8.01 -5.455 8.01 -10 7 C-9.67 6.34 -9.34 5.68 -9 5 C-6.93359375 4.5859375 -6.93359375 4.5859375 -4.4375 4.375 C-3.61121094 4.30023438 -2.78492188 4.22546875 -1.93359375 4.1484375 C-0.97646484 4.07496094 -0.97646484 4.07496094 0 4 C0 2.68 0 1.36 0 0 Z " fill="#7F8080" transform="translate(541,426)"/>
<path d="M0 0 C2.1875 -0.3125 2.1875 -0.3125 5 0 C7.8125 2.5 7.8125 2.5 10 5 C9.34 5 8.68 5 8 5 C7.67 5.66 7.34 6.32 7 7 C6.5875 6.54625 6.175 6.0925 5.75 5.625 C3.93591905 3.94049626 2.24714373 3.00734029 0 2 C0 1.34 0 0.68 0 0 Z " fill="#46474A" transform="translate(494,415)"/>
<path d="M0 0 C1.32 0.33 2.64 0.66 4 1 C3.75 2.875 3.75 2.875 3 5 C0.9375 6.25 0.9375 6.25 -1 7 C-1 6.01 -1 5.02 -1 4 C-1.66 3.67 -2.32 3.34 -3 3 C-2.34 3 -1.68 3 -1 3 C-0.67 2.01 -0.34 1.02 0 0 Z " fill="#9B3F16" transform="translate(625,363)"/>
<path d="M0 0 C0.33 0 0.66 0 1 0 C1.12375 0.804375 1.2475 1.60875 1.375 2.4375 C1.58125 3.283125 1.7875 4.12875 2 5 C2.66 5.33 3.32 5.66 4 6 C3.67 6.99 3.34 7.98 3 9 C1.68 8.34 0.36 7.68 -1 7 C-1 7.66 -1 8.32 -1 9 C-2.875 9.625 -2.875 9.625 -5 10 C-5.66 9.34 -6.32 8.68 -7 8 C-6.030625 7.608125 -5.06125 7.21625 -4.0625 6.8125 C-0.77823609 5.32405113 -0.77823609 5.32405113 -0.125 2.3125 C-0.08375 1.549375 -0.0425 0.78625 0 0 Z " fill="#484C50" transform="translate(533,358)"/>
<path d="M0 0 C0.66 0.33 1.32 0.66 2 1 C2 3.31 2 5.62 2 8 C0.68 7.67 -0.64 7.34 -2 7 C-2 5.02 -2 3.04 -2 1 C-1.34 0.67 -0.68 0.34 0 0 Z " fill="#2B3035" transform="translate(536,356)"/>
<path d="M0 0 C3.3 0 6.6 0 10 0 C10 0.99 10 1.98 10 3 C3.375 3.125 3.375 3.125 0 2 C0 1.34 0 0.68 0 0 Z " fill="#4D5052" transform="translate(528,473)"/>
<path d="M0 0 C0.66 0.66 1.32 1.32 2 2 C1.65922921 9.15618661 1.65922921 9.15618661 -0.5625 12 C-1.2740625 12.495 -1.2740625 12.495 -2 13 C-2 12.34 -2 11.68 -2 11 C-2.66 10.67 -3.32 10.34 -4 10 C-3.34 9.46375 -2.68 8.9275 -2 8.375 C0.31024799 6.10041408 0.31024799 6.10041408 0.25 2.75 C0.1675 1.8425 0.085 0.935 0 0 Z " fill="#616363" transform="translate(479,441)"/>
<path d="M0 0 C0.66 1.32 1.32 2.64 2 4 C2.98879205 5.67334039 3.98648336 7.34151823 5 9 C3.35 9 1.7 9 0 9 C-0.33 10.32 -0.66 11.64 -1 13 C-0.67 8.71 -0.34 4.42 0 0 Z " fill="#545455" transform="translate(482,411)"/>
<path d="M0 0 C2.97 0 5.94 0 9 0 C8.67 0.66 8.34 1.32 8 2 C8.66 2.66 9.32 3.32 10 4 C7.03 4 4.06 4 1 4 C0.67 2.68 0.34 1.36 0 0 Z " fill="#E6E6E5" transform="translate(524,412)"/>
<path d="M0 0 C0.928125 0.20625 1.85625 0.4125 2.8125 0.625 C2.4825 2.275 2.1525 3.925 1.8125 5.625 C-0.8275 4.305 -3.4675 2.985 -6.1875 1.625 C-3.1875 -0.375 -3.1875 -0.375 0 0 Z " fill="#E97F31" transform="translate(608.1875,312.375)"/>
<path d="M0 0 C4.455 1.98 4.455 1.98 9 4 C8.01 5.485 8.01 5.485 7 7 C4.36 5.68 1.72 4.36 -1 3 C-0.67 2.01 -0.34 1.02 0 0 Z " fill="#3F4549" transform="translate(487,468)"/>
<path d="M0 0 C0.33 0 0.66 0 1 0 C1 1.98 1 3.96 1 6 C1.66 6 2.32 6 3 6 C2.39816251 8.02045442 1.72693904 10.02111039 1 12 C0.01 12.495 0.01 12.495 -1 13 C-1.66 12.34 -2.32 11.68 -3 11 C-2.34 10.01 -1.68 9.02 -1 8 C-0.54860541 5.9507906 -0.54860541 5.9507906 -0.375 3.8125 C-0.25125 2.554375 -0.1275 1.29625 0 0 Z " fill="#535557" transform="translate(547,439)"/>
<path d="M0 0 C0.66 0.33 1.32 0.66 2 1 C1.67 1.99 1.34 2.98 1 4 C0.34 4 -0.32 4 -1 4 C-1 6.97 -1 9.94 -1 13 C-1.33 13 -1.66 13 -2 13 C-2 9.7 -2 6.4 -2 3 C-3.65 3.33 -5.3 3.66 -7 4 C-7.33 3.34 -7.66 2.68 -8 2 C-5.36 2 -2.72 2 0 2 C0 1.34 0 0.68 0 0 Z " fill="#5C5F65" transform="translate(455,396)"/>
<path d="M0 0 C-3.80544125 2.9272625 -7.69729493 5.84864746 -12 8 C-9.40790268 1.95177293 -6.74363595 -0.61305781 0 0 Z " fill="#D1D3D4" transform="translate(496,396)"/>
<path d="M0 0 C0 2.97 0 5.94 0 9 C-0.99 9 -1.98 9 -3 9 C-3 6.36 -3 3.72 -3 1 C-1 0 -1 0 0 0 Z " fill="#2B2F32" transform="translate(492,367)"/>
<path d="M0 0 C0.99 0 1.98 0 3 0 C3 0.99 3 1.98 3 3 C2.01 3.66 1.02 4.32 0 5 C-0.33 5.99 -0.66 6.98 -1 8 C-0.34 8 0.32 8 1 8 C0.67 8.66 0.34 9.32 0 10 C-0.66 9.67 -1.32 9.34 -2 9 C-2.125 5.625 -2.125 5.625 -2 2 C-1.34 1.34 -0.68 0.68 0 0 Z " fill="#26292C" transform="translate(485,453)"/>
<path d="M0 0 C4.75 0.875 4.75 0.875 7 2 C7 2.99 7 3.98 7 5 C4.36 4.34 1.72 3.68 -1 3 C-0.67 2.01 -0.34 1.02 0 0 Z " fill="#A84414" transform="translate(720,412)"/>
<path d="M0 0 C0.33 0 0.66 0 1 0 C1.66 3.3 2.32 6.6 3 10 C1.68 10 0.36 10 -1 10 C-2.46726798 6.18510326 -1.43336419 3.70988378 0 0 Z " fill="#515457" transform="translate(467,383)"/>
<path d="M0 0 C0.99 0.33 1.98 0.66 3 1 C2.4375 2.875 2.4375 2.875 1 5 C-2.625 6.25 -2.625 6.25 -6 7 C-5.67 6.34 -5.34 5.68 -5 5 C-4.01 5 -3.02 5 -2 5 C-2.33 4.01 -2.66 3.02 -3 2 C-2.01 2 -1.02 2 0 2 C0 1.34 0 0.68 0 0 Z " fill="#383D41" transform="translate(532,365)"/>
<path d="M0 0 C-0.70554068 3.66881155 -2.27735506 6.70450534 -4 10 C-4.33 10 -4.66 10 -5 10 C-5.3669579 3.51707705 -5.3669579 3.51707705 -3.625 1.0625 C-2 0 -2 0 0 0 Z " fill="#303335" transform="translate(460,442)"/>
<path d="M0 0 C0.99 0.33 1.98 0.66 3 1 C3.33 4.3 3.66 7.6 4 11 C3.34 11 2.68 11 2 11 C1.66550467 9.35440244 1.33243501 7.70851502 1 6.0625 C0.814375 5.14597656 0.62875 4.22945313 0.4375 3.28515625 C0 1 0 1 0 0 Z " fill="#323334" transform="translate(464,440)"/>
<path d="M0 0 C0.2475 0.5775 0.495 1.155 0.75 1.75 C2.16683317 4.3002997 3.87627537 6.01785701 6 8 C4.68 8.33 3.36 8.66 2 9 C0.4375 7.3125 0.4375 7.3125 -1 5 C-0.6875 2.25 -0.6875 2.25 0 0 Z " fill="#505152" transform="translate(515,445)"/>
<path d="M0 0 C2.475 0.99 2.475 0.99 5 2 C5 3.98 5 5.96 5 8 C4.01 8.495 4.01 8.495 3 9 C2 6 1 3 0 0 Z " fill="#CD5615" transform="translate(594,360)"/>
<path d="M0 0 C0.99 0 1.98 0 3 0 C3 2.31 3 4.62 3 7 C2.01 7.33 1.02 7.66 0 8 C0 5.36 0 2.72 0 0 Z " fill="#1F232A" transform="translate(496,352)"/>
<path d="M0 0 C0.33 0.66 0.66 1.32 1 2 C1.66 2 2.32 2 3 2 C1.84826645 4.46800047 0.95216435 6.04783565 -1 8 C-1.93065133 5.39417629 -2.14917407 4.35801776 -1.0625 1.75 C-0.711875 1.1725 -0.36125 0.595 0 0 Z " fill="#545656" transform="translate(492,446)"/>
<path d="M0 0 C0.99 0.33 1.98 0.66 3 1 C3 3.64 3 6.28 3 9 C2.34 9 1.68 9 1 9 C0.67 6.03 0.34 3.06 0 0 Z " fill="#2F3132" transform="translate(547,436)"/>
<path d="M0 0 C0.66 0 1.32 0 2 0 C2 2.97 2 5.94 2 9 C1.67 9 1.34 9 1 9 C1 7.35 1 5.7 1 4 C-0.98 4 -2.96 4 -5 4 C-2 2 -2 2 0 2 C0 1.34 0 0.68 0 0 Z " fill="#2C2E2F" transform="translate(502,420)"/>
<path d="M0 0 C1.32 0 2.64 0 4 0 C4 1.65 4 3.3 4 5 C2.68 5 1.36 5 0 5 C0 3.35 0 1.7 0 0 Z " fill="#383C3F" transform="translate(461,415)"/>
<path d="M0 0 C0.99 0.33 1.98 0.66 3 1 C3 2.65 3 4.3 3 6 C1.68 6 0.36 6 -1 6 C-0.67 4.02 -0.34 2.04 0 0 Z " fill="#333739" transform="translate(517,374)"/>
<path d="M0 0 C2.64 0 5.28 0 8 0 C7.13375 0.37125 7.13375 0.37125 6.25 0.75 C3.6997003 2.16683317 1.98214299 3.87627537 0 6 C0 4.02 0 2.04 0 0 Z " fill="#453324" transform="translate(734,527)"/>
<path d="M0 0 C3.65316671 1.24976756 4.78065836 1.67098753 7 5 C4.03 4.505 4.03 4.505 1 4 C0.67 2.68 0.34 1.36 0 0 Z " fill="#3C444C" transform="translate(450,462)"/>
<path d="M0 0 C1.32 1.65 2.64 3.3 4 5 C3.34 6.32 2.68 7.64 2 9 C0.4375 7.3125 0.4375 7.3125 -1 5 C-0.6875 2.25 -0.6875 2.25 0 0 Z " fill="#4E535A" transform="translate(447,455)"/>
<path d="M0 0 C0.33 0.66 0.66 1.32 1 2 C1.66 2.33 2.32 2.66 3 3 C2.34 4.65 1.68 6.3 1 8 C0.01 7.67 -0.98 7.34 -2 7 C-1.34 4.69 -0.68 2.38 0 0 Z " fill="#4D4F52" transform="translate(540,396)"/>
<path d="M0 0 C2.31 0.33 4.62 0.66 7 1 C7 1.66 7 2.32 7 3 C5.35 2.67 3.7 2.34 2 2 C1.67 2.99 1.34 3.98 1 5 C0.67 3.35 0.34 1.7 0 0 Z " fill="#2C2F32" transform="translate(506,397)"/>
<path d="M0 0 C0.66 0.33 1.32 0.66 2 1 C-0.31 3.31 -2.62 5.62 -5 8 C-5 5 -5 5 -2.5 2.3125 C-1.675 1.549375 -0.85 0.78625 0 0 Z " fill="#FBE2CF" transform="translate(772,477)"/>
<path d="M0 0 C0.66 0 1.32 0 2 0 C2.66 1.32 3.32 2.64 4 4 C2.02 4.33 0.04 4.66 -2 5 C-1.34 3.35 -0.68 1.7 0 0 Z " fill="#DAD9D9" transform="translate(497,443)"/>
<path d="M0 0 C1.32 1.65 2.64 3.3 4 5 C3.01 5.33 2.02 5.66 1 6 C0.67 7.32 0.34 8.64 0 10 C0 6.7 0 3.4 0 0 Z " fill="#888FD4" transform="translate(563,427)"/>
<path d="M0 0 C2.0625 0.75 2.0625 0.75 4 2 C4.33 2.99 4.66 3.98 5 5 C1.73045798 4.43628586 0.17424117 3.50037734 -2 1 C-1.34 0.67 -0.68 0.34 0 0 Z " fill="#424548" transform="translate(513,399)"/>
<path d="M0 0 C0 2.31 0 4.62 0 7 C-0.99 7 -1.98 7 -3 7 C-3 5.02 -3 3.04 -3 1 C-1 0 -1 0 0 0 Z " fill="#24282C" transform="translate(457,399)"/>
<path d="M0 0 C0.66 0.33 1.32 0.66 2 1 C2 2.98 2 4.96 2 7 C1.01 7 0.02 7 -1 7 C-0.67 4.69 -0.34 2.38 0 0 Z " fill="#292E34" transform="translate(446,398)"/>
<path d="M0 0 C2.56687367 3.8503105 1.83288724 5.58569763 1 10 C0.34 9.67 -0.32 9.34 -1 9 C-1.125 2.25 -1.125 2.25 0 0 Z " fill="#555C61" transform="translate(450,372)"/>
<path d="M0 0 C0 0.99 0 1.98 0 3 C-1.65 3.66 -3.3 4.32 -5 5 C-5.33 4.01 -5.66 3.02 -6 2 C-4.02 1.34 -2.04 0.68 0 0 Z " fill="#444546" transform="translate(535,442)"/>
<path d="M0 0 C0.66 0.33 1.32 0.66 2 1 C0.02 2.98 -1.96 4.96 -4 7 C-4.66 6.67 -5.32 6.34 -6 6 C-4 4 -2 2 0 0 Z " fill="#D3D3D5" transform="translate(454,432)"/>
<path d="M0 0 C7.50769231 -0.36923077 7.50769231 -0.36923077 10 1.5 C10.495 2.2425 10.495 2.2425 11 3 C6.91281305 3.24042276 3.82320557 2.42258812 0 1 C0 0.67 0 0.34 0 0 Z " fill="#55585C" transform="translate(486,346)"/>
</svg>
